/* XPM */
static char * baba4_xpm[] = {
"48 48 10 1",
" 	c None",
".	c #F5C187",
"+	c #AD5B40",
"@	c #403022",
"#	c #E3936B",
"$	c #6E5447",
"%	c #2A1D0D",
"&	c #9C7552",
"*	c #E08128",
"=	c #F2AC29",
"                                                ",
"                                                ",
"                                                ",
"                                                ",
"                                                ",
"                                                ",
"                     ....                       ",
"                   ..++++..                     ",
"                   ..++++..                     ",
"                   ..@##@..                     ",
"                   $$####$$                     ",
"                   $$####$$                     ",
"                   $$####$$      %              ",
"                   $$@++@$$   %%%               ",
"                   $$@++@$$   %%%               ",
"                  &$$++++$$&  #                 ",
"                ...&&&&&&&&.###                 ",
"                ...&&&&&&&&.###                 ",
"                ...&&&&&&&&%.....               ",
"                .. &&&&&&&&%  ...               ",
"                .. &&&&&&&&%  ...               ",
"               ... &&&&&&%%   ...               ",
"               .......&&%&&                     ",
"               .......&&%&&                     ",
"                   .....#&&                     ",
"                   ..$###$$                     ",
"                   ..$###$$                     ",
"                  ...%&&&&&                     ",
"                ..%%%&&&&&&&                    ",
"                ..%%%&&&&&&&                    ",
"               %%%&&&&&&&&&&&&                  ",
"             %%...&&&&&&&&&&&&                  ",
"             %%...&&&&&&&&&&&&                  ",
"    ********%.....&&&&&&&&&&&&.                 ",
"      ***=***.....&&&&&&&&&&&&.                 ",
"      ***=***.....&&&&&&&&&&&&.                 ",
"      ****==*.....&&&&&&&&&&&&.                 ",
"       ***==*......&&&&&&&&&...                 ",
"       ***==*......&&&&&&&&&...                 ",
"         ***=**....&&&&&&&&&...                 ",
"         ****==................                 ",
"         ****==................                 ",
"          ..***=..............***               ",
"          ...*****......*******                 ",
"          ...*****......*******                 ",
"          .....**********.....                  ",
"                                                ",
"                                                "};
