/* XPM */
static char * Chick_Down2_xpm[] = {
"48 48 169 2",
"  	c #FFFFFF",
". 	c #FEFCF4",
"+ 	c #FAF1D7",
"@ 	c #F6E7BA",
"# 	c #F4E2B0",
"$ 	c #F4E1AF",
"% 	c #FEFCF5",
"& 	c #F6E5B2",
"* 	c #EECE53",
"= 	c #ECC82C",
"- 	c #ECC82A",
"; 	c #ECC829",
"> 	c #FAF3DB",
", 	c #EFD061",
"' 	c #EFD060",
") 	c #F9F1DB",
"! 	c #F9EECE",
"~ 	c #EDCB3E",
"{ 	c #EBC93C",
"] 	c #F1E7CC",
"^ 	c #FAF3DC",
"/ 	c #EDCA3D",
"( 	c #E5C33B",
"_ 	c #F2ECDA",
": 	c #FEFBF3",
"< 	c #EFD062",
"[ 	c #D8BD5E",
"} 	c #FBF9F1",
"| 	c #FFFFFE",
"1 	c #F4E0A4",
"2 	c #E3C028",
"3 	c #DACCA1",
"4 	c #FDF9EE",
"5 	c #EDCB41",
"6 	c #CCAF39",
"7 	c #F9F6ED",
"8 	c #F5E4AF",
"9 	c #D7B626",
"0 	c #E0D3AD",
"a 	c #FFFEFB",
"b 	c #EED05E",
"c 	c #E1BF28",
"d 	c #C7AE59",
"e 	c #FEFDFB",
"f 	c #FCF6E6",
"g 	c #ECC935",
"h 	c #E6C329",
"i 	c #C1A42C",
"j 	c #F5F1E5",
"k 	c #DEBC27",
"l 	c #CEAE24",
"m 	c #DEBD27",
"n 	c #EAC62A",
"o 	c #C1A322",
"p 	c #EBE3CB",
"q 	c #F6E7B8",
"r 	c #493C07",
"s 	c #010100",
"t 	c #C0A321",
"u 	c #493D07",
"v 	c #EBC72A",
"w 	c #C1A422",
"x 	c #DFD3B3",
"y 	c #E3C128",
"z 	c #181301",
"A 	c #000000",
"B 	c #B1951D",
"C 	c #B0951D",
"D 	c #1A1502",
"E 	c #E4C128",
"F 	c #DCCFAE",
"G 	c #AA901D",
"H 	c #907A17",
"I 	c #DDBC27",
"J 	c #DDBB27",
"K 	c #AB911D",
"L 	c #E9C629",
"M 	c #C0A322",
"N 	c #ECC129",
"O 	c #ECC62A",
"P 	c #C0A221",
"Q 	c #EBBB29",
"R 	c #E88123",
"S 	c #E88424",
"T 	c #E88324",
"U 	c #E1BE28",
"V 	c #BDA021",
"W 	c #DDD0AE",
"X 	c #EAB928",
"Y 	c #E87C23",
"Z 	c #D6B526",
"` 	c #EDE1C6",
" .	c #FCF7E8",
"..	c #EDCA38",
"+.	c #E7C129",
"@.	c #E48223",
"#.	c #C4A622",
"$.	c #C0A430",
"%.	c #F7F2E7",
"&.	c #FFFFFD",
"*.	c #F0D36C",
"=.	c #D8A224",
"-.	c #E77D23",
";.	c #DBBA27",
">.	c #CAB466",
",.	c #FFFEFD",
"'.	c #F8EBC5",
").	c #E7C329",
"!.	c #CFA423",
"~.	c #E8C529",
"{.	c #C3A522",
"].	c #E8DFC1",
"^.	c #F8F7F3",
"/.	c #E6C85B",
"(.	c #EAC72A",
"_.	c #CCAD24",
":.	c #C0A956",
"<.	c #F7F6F3",
"[.	c #F7F7F7",
"}.	c #B4B4B4",
"|.	c #B6AD92",
"1.	c #E9C731",
"2.	c #CEAF24",
"3.	c #BDA12A",
"4.	c #ACA691",
"5.	c #B5B5B5",
"6.	c #D8D8D8",
"7.	c #A6A6A6",
"8.	c #BBAE85",
"9.	c #E6C32E",
"0.	c #C9AA23",
"a.	c #BDA027",
"b.	c #AFA585",
"c.	c #D9D9D9",
"d.	c #B2A788",
"e.	c #D3B438",
"f.	c #E2C028",
"g.	c #EAC629",
"h.	c #D4B425",
"i.	c #BFA221",
"j.	c #BCA135",
"k.	c #AFA588",
"l.	c #F8F8F8",
"m.	c #B6B6B6",
"n.	c #ABA697",
"o.	c #B8A35B",
"p.	c #C1A428",
"q.	c #C9AB23",
"r.	c #D0B025",
"s.	c #D1B125",
"t.	c #BEA121",
"u.	c #D0D0D0",
"v.	c #A8A8A8",
"w.	c #A6A6A5",
"x.	c #ABA695",
"y.	c #B1A47E",
"z.	c #B6A364",
"A.	c #BBA23A",
"B.	c #BCA12F",
"C.	c #D1D1D1",
"D.	c #F6F6F6",
"E.	c #DBDBDB",
"F.	c #C3C3C3",
"G.	c #B2B2B2",
"H.	c #A7A7A7",
"I.	c #FCFCFC",
"J.	c #E9E9E9",
"K.	c #E1E1E1",
"L.	c #DADADA",
"                                                                                                ",
"                                                                                                ",
"                                                                                                ",
"                                                                                                ",
"                                                                                                ",
"                                                                                                ",
"                                                                                                ",
"                                                                                                ",
"                                                                                                ",
"                                                                                                ",
"                                                                                                ",
"                                                                                                ",
"                                        . + @ # $ @ + .                                         ",
"                                    % & * = - - ; - = * & %                                     ",
"                                  > , - - - - - - - - - - ' )                                   ",
"                                ! ~ - - - - - - - - - - - - { ]                                 ",
"                              ^ / - - - - - - - - - - - - - - ( _                               ",
"                            : < - - - - - - - - - - - - - - - - [ }                             ",
"                          | 1 - - - - - - - - - - - - - - - - - 2 3 |                           ",
"                          4 5 - - - - - - - - - - - - - - - - - - 6 7                           ",
"                          8 - - - - - - - - - - - - - - - - - - - 9 0                           ",
"                        a b - - - - - - - - - - - - - - - - - - - c d e                         ",
"                        f g - - - - - - - - - - - - - - - - - - - h i j                         ",
"                        ! - - - - - - - k l - - - - l m - - - - - n o p                         ",
"                        q - - - - - - h r s t - - t s u h - - - - v w x                         ",
"                        # - - - - - - y z A B - - C A D E - - - - v w F                         ",
"                        $ - - - - - - n G H I - - J H K n - - - - L M F                         ",
"                        $ - - - - - - - n h N O O N h n - - - - - h P F                         ",
"                        $ - - - - - - - - Q R S T R Q - - - - - - U V W                         ",
"                        $ - - - - - - - - X Y Y Y Y X - - - - - - Z V `                         ",
"                         ...- - - - - - - +.@.Y Y @.+.- - - - - v #.$.%.                        ",
"                        &.*.- - - - - - - - =.-.-.=.- - - - - - ;.V >.,.                        ",
"                          '.- - - - - - - - ).!.!.).- - - - - ~.{.V ].                          ",
"                          ^./.- - - - - - - - - - - - - - - (._.V :.<.                          ",
"                        [.}.|.1.- - - - - - - - - - - - - (.2.V 3.4.5.[.                        ",
"                        6.7.7.8.9.- - - - - - - - - - - h 0.V a.b.7.7.c.                        ",
"                        c.7.7.7.d.e.f.g.- - - - - g.f.h.i.V j.k.7.7.7.c.                        ",
"                        l.m.7.7.7.n.o.p.q.r.s.r.q.o t.V a.o.n.7.7.7.m.l.                        ",
"                          l.u.v.7.7.w.x.y.z.A.B.B.A.z.y.x.w.7.7.v.C.l.                          ",
"                              D.E.F.G.H.7.7.7.7.7.7.7.7.H.G.F.E.[.                              ",
"                                    I.[.J.K.L.c.c.L.K.J.[.I.                                    ",
"                                                                                                ",
"                                                                                                ",
"                                                                                                ",
"                                                                                                ",
"                                                                                                ",
"                                                                                                ",
"                                                                                                "};
