/* XPM */
static char * collectible2_xpm[] = {
"45 48 635 2",
"  	c None",
". 	c #692016",
"+ 	c #6B2216",
"@ 	c #6C2216",
"# 	c #953519",
"$ 	c #AA411C",
"% 	c #BB4D1E",
"& 	c #C25120",
"* 	c #913519",
"= 	c #A23F1C",
"- 	c #BB491E",
"; 	c #D75821",
"> 	c #EB6425",
", 	c #F26926",
"' 	c #B7491D",
") 	c #983E1A",
"! 	c #8B3419",
"~ 	c #AB451D",
"{ 	c #D35A22",
"] 	c #E66224",
"^ 	c #ED6525",
"/ 	c #F06826",
"( 	c #D15921",
"_ 	c #A3441B",
": 	c #7D3217",
"< 	c #8C3419",
"[ 	c #B54A1E",
"} 	c #D45A22",
"| 	c #E86425",
"1 	c #F16926",
"2 	c #E86424",
"3 	c #D15A21",
"4 	c #AE491C",
"5 	c #7F3217",
"6 	c #822C18",
"7 	c #A13D1B",
"8 	c #CD5520",
"9 	c #EC6625",
"0 	c #F26927",
"a 	c #F26A2B",
"b 	c #F16C30",
"c 	c #F16A2C",
"d 	c #CA5520",
"e 	c #993C19",
"f 	c #732916",
"g 	c #92351A",
"h 	c #BC4A1E",
"i 	c #DD5D22",
"j 	c #EF6725",
"k 	c #F16B2D",
"l 	c #ED7445",
"m 	c #E97C56",
"n 	c #E97C57",
"o 	c #ED7446",
"p 	c #F16C2F",
"q 	c #B8491D",
"r 	c #863218",
"s 	c #7F2C18",
"t 	c #A3401C",
"u 	c #D15721",
"v 	c #EA6424",
"w 	c #F16826",
"x 	c #F06F38",
"y 	c #E38567",
"z 	c #D79885",
"A 	c #D69986",
"B 	c #E38769",
"C 	c #EF703B",
"D 	c #CD5620",
"E 	c #963C1A",
"F 	c #672515",
"G 	c #96371A",
"H 	c #BB4B1E",
"I 	c #DF5F23",
"J 	c #EF703C",
"K 	c #DF8D73",
"L 	c #CDA495",
"M 	c #CCA496",
"N 	c #DE8E76",
"O 	c #EE7240",
"P 	c #EF6826",
"Q 	c #DA5C22",
"R 	c #A6411C",
"S 	c #752716",
"T 	c #7C2A18",
"U 	c #D35721",
"V 	c #E96424",
"W 	c #F06E36",
"X 	c #E58463",
"Y 	c #D99580",
"Z 	c #D99581",
"` 	c #E48465",
" .	c #EF6F3A",
"..	c #DD5D23",
"+.	c #AF421D",
"@.	c #7C2817",
"#.	c #581C14",
"$.	c #8E3319",
"%.	c #BD4D1E",
"&.	c #E36124",
"*.	c #F26928",
"=.	c #F16B2C",
"-.	c #EE7242",
";.	c #EA7951",
">.	c #EA7A51",
",.	c #EE7342",
"'.	c #DE5D23",
").	c #B1421D",
"!.	c #7F2917",
"~.	c #5B1D14",
"{.	c #8A3119",
"].	c #AB421C",
"^.	c #EC6525",
"/.	c #F26A2A",
"(.	c #B2421D",
"_.	c #852A18",
":.	c #651F16",
"<.	c #551B14",
"[.	c #993A1A",
"}.	c #C5501F",
"|.	c #E26024",
"1.	c #EF6829",
"2.	c #F06F39",
"3.	c #E68261",
"4.	c #ED7548",
"5.	c #F16B2E",
"6.	c #B4431D",
"7.	c #8E2C19",
"8.	c #762317",
"9.	c #5F1D15",
"0.	c #893119",
"a.	c #AD441D",
"b.	c #D85B22",
"c.	c #ED6728",
"d.	c #EF6E37",
"e.	c #DD9079",
"f.	c #D79784",
"g.	c #E38669",
"h.	c #F16A2B",
"i.	c #F16A29",
"j.	c #F26A29",
"k.	c #B5431E",
"l.	c #972F1A",
"m.	c #842718",
"n.	c #6A2016",
"o.	c #561B14",
"p.	c #792817",
"q.	c #9D3B1B",
"r.	c #E46124",
"s.	c #F06A2C",
"t.	c #EC7548",
"u.	c #E18A6E",
"v.	c #D39D8B",
"w.	c #CEA293",
"x.	c #D9947F",
"y.	c #E87E5A",
"z.	c #F06C31",
"A.	c #EE7140",
"B.	c #F16C32",
"C.	c #F06827",
"D.	c #B6431E",
"E.	c #9A2F1B",
"F.	c #8C2919",
"G.	c #4F1A14",
"H.	c #822E18",
"I.	c #AE451D",
"J.	c #DA5B22",
"K.	c #ED6625",
"L.	c #ED7344",
"M.	c #E48568",
"N.	c #D19F8F",
"O.	c #DC9078",
"P.	c #EA7C54",
"Q.	c #F16C31",
"R.	c #E97B54",
"S.	c #E6805F",
"T.	c #9B301B",
"U.	c #922A1A",
"V.	c #842618",
"W.	c #6B2016",
"X.	c #541B14",
"Y.	c #9B3A1B",
"Z.	c #C34F1F",
"`.	c #E76324",
" +	c #ED7549",
".+	c #E3886B",
"++	c #F26A28",
"@+	c #F06D32",
"#+	c #E48566",
"$+	c #EC7448",
"%+	c #DC5C23",
"&+	c #9B301C",
"*+	c #952D1C",
"=+	c #8E2A1A",
"-+	c #5E1D15",
";+	c #9D391A",
">+	c #BA491E",
",+	c #D85A22",
"'+	c #EB774E",
")+	c #ED7343",
"!+	c #EC764A",
"~+	c #EF6D38",
"{+	c #E96427",
"]+	c #D45722",
"^+	c #B0411F",
"/+	c #983624",
"(+	c #943525",
"_+	c #912F1F",
":+	c #822719",
"<+	c #6D2016",
"[+	c #5C1C14",
"}+	c #99371A",
"|+	c #B8461D",
"1+	c #D65821",
"2+	c #E96325",
"3+	c #F16A2A",
"4+	c #EC6628",
"5+	c #DA5A23",
"6+	c #BD481F",
"7+	c #A33A21",
"8+	c #933E2E",
"9+	c #8F4132",
"0+	c #913626",
"a+	c #8E2B1B",
"b+	c #802518",
"c+	c #6C2016",
"d+	c #5C1D14",
"e+	c #521B14",
"f+	c #9A361A",
"g+	c #AF401C",
"h+	c #CA4F1F",
"i+	c #E45F23",
"j+	c #F06726",
"k+	c #EE6626",
"l+	c #E15E23",
"m+	c #C54D1F",
"n+	c #A7381C",
"o+	c #983220",
"p+	c #923D2E",
"q+	c #933627",
"r+	c #8E2A19",
"s+	c #7F2518",
"t+	c #5B1C15",
"u+	c #511A14",
"v+	c #852D18",
"w+	c #983519",
"x+	c #B1401B",
"y+	c #BF471D",
"z+	c #CD5020",
"A+	c #E05D23",
"B+	c #ED6526",
"C+	c #E86225",
"D+	c #D35421",
"E+	c #B7421D",
"F+	c #9E311B",
"G+	c #972D1C",
"H+	c #953222",
"I+	c #953424",
"J+	c #96301F",
"K+	c #972D1B",
"L+	c #922B19",
"M+	c #872718",
"N+	c #742217",
"O+	c #621E16",
"P+	c #571B14",
"Q+	c #511B14",
"R+	c #792717",
"S+	c #98351A",
"T+	c #B1401C",
"U+	c #BE471D",
"V+	c #C4491E",
"W+	c #C84C1F",
"X+	c #E15D23",
"Y+	c #EF6726",
"Z+	c #E25F23",
"`+	c #CA4E1F",
" @	c #AF3C1D",
".@	c #9C301B",
"+@	c #972C1A",
"@@	c #962C1A",
"#@	c #952C1A",
"$@	c #8D2919",
"%@	c #7D2518",
"&@	c #6E2017",
"*@	c #641E16",
"=@	c #5F1C15",
"-@	c #581C15",
";@	c #4F1A13",
">@	c #5F1E15",
",@	c #862B19",
"'@	c #A73B1C",
")@	c #C0481F",
"!@	c #C24B24",
"~@	c #C34C26",
"{@	c #C44C25",
"]@	c #C84D21",
"^@	c #D25320",
"/@	c #EC6425",
"(@	c #E76124",
"_@	c #D45521",
":@	c #BA441E",
"<@	c #A5361B",
"[@	c #9A2E1A",
"}@	c #942B1A",
"|@	c #8B2818",
"1@	c #7E2517",
"2@	c #6F2117",
"3@	c #671E16",
"4@	c #651E16",
"5@	c #5E1D16",
"6@	c #551C14",
"7@	c #361F0D",
"8@	c #622115",
"9@	c #98341A",
"0@	c #B4411D",
"a@	c #C14E2B",
"b@	c #BD5B41",
"c@	c #BB6048",
"d@	c #C2502E",
"e@	c #C84C1E",
"f@	c #D15220",
"g@	c #DE5C22",
"h@	c #E46023",
"i@	c #E86324",
"j@	c #EE6725",
"k@	c #EB6525",
"l@	c #E66124",
"m@	c #E35F23",
"n@	c #D85721",
"o@	c #C2491E",
"p@	c #A9391C",
"q@	c #9B2F1A",
"r@	c #972D1A",
"s@	c #902A1A",
"t@	c #7B2417",
"u@	c #6E2016",
"v@	c #631E16",
"w@	c #581E14",
"x@	c #321F0D",
"y@	c #672415",
"z@	c #A83C1B",
"A@	c #BE4720",
"B@	c #BF5537",
"C@	c #B36D5C",
"D@	c #AE7767",
"E@	c #B36E5C",
"F@	c #BE583C",
"G@	c #CE501F",
"H@	c #D95821",
"I@	c #EA6325",
"J@	c #EA6425",
"K@	c #E96324",
"L@	c #DE5C23",
"M@	c #D45421",
"N@	c #D05220",
"O@	c #BA441D",
"P@	c #A2351B",
"Q@	c #902A19",
"R@	c #832618",
"S@	c #782217",
"T@	c #732117",
"U@	c #661E16",
"V@	c #591E13",
"W@	c #311F0D",
"X@	c #692415",
"Y@	c #AD3F1B",
"Z@	c #C14921",
"`@	c #BE573B",
" #	c #AF7463",
".#	c #A87E70",
"+#	c #AF7464",
"@#	c #C54A1E",
"##	c #C64A1F",
"$#	c #CB4E1F",
"%#	c #D35521",
"&#	c #D75722",
"*#	c #D85822",
"=#	c #CF5120",
"-#	c #C74C1F",
";#	c #C64A1E",
">#	c #B7411D",
",#	c #9F331A",
"'#	c #8A2819",
")#	c #7A2418",
"!#	c #712318",
"~#	c #682118",
"{#	c #662018",
"]#	c #651F17",
"^#	c #581E13",
"/#	c #652315",
"(#	c #A3391B",
"_#	c #BB451F",
":#	c #C05233",
"<#	c #B66854",
"[#	c #B2705F",
"}#	c #B76854",
"|#	c #BF5638",
"1#	c #C74B1F",
"2#	c #C64B1E",
"3#	c #C3491E",
"4#	c #BC441E",
"5#	c #AB3B1B",
"6#	c #922E19",
"7#	c #6D2017",
"8#	c #692017",
"9#	c #64241B",
"0#	c #5F271E",
"a#	c #5F271D",
"b#	c #62231A",
"c#	c #641F17",
"d#	c #601D15",
"e#	c #521D13",
"f#	c #2E1F0C",
"g#	c #5F2015",
"h#	c #8F3019",
"i#	c #AD3D1D",
"j#	c #C14B27",
"k#	c #BE583D",
"l#	c #C05538",
"m#	c #C34D29",
"n#	c #C4491F",
"o#	c #C2471E",
"p#	c #B4401D",
"q#	c #9B321A",
"r#	c #7F2618",
"s#	c #671F16",
"t#	c #642018",
"u#	c #5E281E",
"v#	c #572E23",
"w#	c #582E23",
"x#	c #5E271D",
"y#	c #642017",
"z#	c #581D14",
"A#	c #461C11",
"B#	c #2A1F0C",
"C#	c #752616",
"D#	c #9C371A",
"E#	c #BE461F",
"F#	c #C24A22",
"G#	c #C34B23",
"H#	c #C34B22",
"I#	c #C44920",
"J#	c #C34C25",
"K#	c #C24F2C",
"L#	c #C34D28",
"M#	c #C44A20",
"N#	c #C3481E",
"O#	c #BE461E",
"P#	c #AE3C1C",
"Q#	c #932D1A",
"R#	c #632018",
"S#	c #5D291F",
"T#	c #562F24",
"U#	c #621E15",
"V#	c #4E1D12",
"W#	c #371D0E",
"X#	c #602014",
"Y#	c #892F18",
"Z#	c #AF3D1C",
"`#	c #BB451D",
" $	c #C1481E",
".$	c #C2481E",
"+$	c #C34A22",
"@$	c #C05333",
"#$	c #BC5D44",
"$$	c #BF583C",
"%$	c #BE451E",
"&$	c #B33F1C",
"*$	c #942D1A",
"=$	c #672017",
"-$	c #62251C",
";$	c #61241B",
">$	c #591D14",
",$	c #431E10",
"'$	c #571C14",
")$	c #772616",
"!$	c #913119",
"~$	c #A23A1A",
"{$	c #AF3F1C",
"]$	c #B9431D",
"^$	c #C0471D",
"/$	c #C44B22",
"($	c #C05436",
"_$	c #BB604A",
":$	c #BE5B41",
"<$	c #C34D26",
"[$	c #B23E1C",
"}$	c #A5351B",
"|$	c #912A1A",
"1$	c #862718",
"2$	c #7C2418",
"3$	c #762318",
"4$	c #6E2318",
"5$	c #642219",
"6$	c #622219",
"7$	c #611D15",
"8$	c #491C11",
"9$	c #381E0E",
"0$	c #251F0B",
"a$	c #631F15",
"b$	c #6D2416",
"c$	c #7C2B17",
"d$	c #8E3019",
"e$	c #A1381A",
"f$	c #B2411C",
"g$	c #BD461D",
"h$	c #C24E2A",
"i$	c #C15130",
"j$	c #B5401D",
"k$	c #A4351B",
"l$	c #982D1A",
"m$	c #922B1A",
"n$	c #892819",
"o$	c #681F17",
"p$	c #5E1E15",
"q$	c #5D1E14",
"r$	c #591C14",
"s$	c #4D1C12",
"t$	c #381D0F",
"u$	c #2D1E0D",
"v$	c #702416",
"w$	c #802A17",
"x$	c #933519",
"y$	c #AA3F1B",
"z$	c #BA451D",
"A$	c #BD4720",
"B$	c #BD4822",
"C$	c #BD4821",
"D$	c #BD471E",
"E$	c #BB441D",
"F$	c #AB3B1C",
"G$	c #982F1A",
"H$	c #912B19",
"I$	c #902B19",
"J$	c #8C2A19",
"K$	c #7B2517",
"L$	c #641F15",
"M$	c #581D13",
"N$	c #501D12",
"O$	c #4B1F11",
"P$	c #4A1F11",
"Q$	c #4A1D11",
"R$	c #642115",
"S$	c #742916",
"T$	c #8E3418",
"U$	c #9B391A",
"V$	c #9E3A1A",
"W$	c #9B381A",
"X$	c #8F3119",
"Y$	c #7E2717",
"Z$	c #782615",
"`$	c #762715",
" %	c #722614",
".%	c #642313",
"+%	c #501F12",
"@%	c #441D10",
"#%	c #3C1D0F",
"$%	c #361F0E",
"%%	c #351F0D",
"&%	c #712816",
"*%	c #722816",
"=%	c #702816",
"-%	c #6D2716",
";%	c #6B2918",
">%	c #6E2E1E",
",%	c #713525",
"'%	c #6E3628",
")%	c #633025",
"!%	c #55291B",
"~%	c #4D2313",
"{%	c #4D2110",
"]%	c #4D210F",
"^%	c #4D220F",
"/%	c #4B210F",
"(%	c #42200E",
"_%	c #2E1E0D",
":%	c #511C14",
"<%	c #502017",
"[%	c #542A20",
"}%	c #603C31",
"|%	c #714D41",
"1%	c #775347",
"2%	c #6E4D41",
"3%	c #593C30",
"4%	c #482A1F",
"5%	c #412014",
"6%	c #50251D",
"7%	c #5E3A2F",
"8%	c #755447",
"9%	c #89685C",
"0%	c #917164",
"a%	c #89695C",
"b%	c #745447",
"c%	c #5C3A2F",
"d%	c #4D261D",
"e%	c #563129",
"f%	c #704F44",
"g%	c #8B6A5D",
"h%	c #9B7A6D",
"i%	c #A08073",
"j%	c #4F281F",
"k%	c #603F35",
"l%	c #816256",
"m%	c #9A7A6D",
"n%	c #A28174",
"o%	c #A48477",
"p%	c #4E271E",
"q%	c #58372C",
"r%	c #705043",
"s%	c #8D6E61",
"t%	c #A18174",
"u%	c #4E241C",
"v%	c #5B372D",
"w%	c #6E4E42",
"x%	c #88695C",
"y%	c #A08276",
"z%	c #AF9185",
"A%	c #B19387",
"B%	c #542B23",
"C%	c #6A463A",
"D%	c #836153",
"E%	c #9B7B6E",
"F%	c #B29589",
"G%	c #C0A498",
"H%	c #C2A69A",
"I%	c #785647",
"J%	c #896759",
"K%	c #B69A8D",
"L%	c #C4A99D",
"M%	c #C6AB9F",
"N%	c #8F6E61",
"O%	c #A38478",
"P%	c #B79A8E",
"Q%	c #A98A7D",
"R%	c #B79B8E",
"                                                                                          ",
"                                        . + @ + .                                         ",
"                                      # $ % & % $ *                                       ",
"                                    = - ; > , > ; ' )                                     ",
"                                ! ~ { ] ^ / , / ^ ] ( _ :                                 ",
"                              < [ } | 1 , , , , , 1 2 3 4 5                               ",
"                            6 7 8 9 , , , 0 a b b c 0 9 d e f                             ",
"                            g h i j , , , k l m n o p j i q r                             ",
"                          s t u v w , , , x y z A B C w v D E F                           ",
"                          G H I / , , , , J K L M N O , P Q R S                           ",
"                        T $ U V w , , , , W X Y Z `  ., / ..+.@.#.                        ",
"                        $.%.&./ 0 *.0 , , =.-.;.>.,.k , / '.).!.~.                        ",
"                      {.].u ^./.W C p 0 , , , , , , , , / '.(._.:.<.                      ",
"                      [.}.|.1.2.n 3.4.5.0 , , , , , , , / '.6.7.8.9.                      ",
"                    0.a.b.c.d.m e.f.g.l h., , , , i.j.0 / '.k.l.m.n.o.                    ",
"                  p.q.}.r.s.t.u.v.w.x.y.z., , , /. .A.B.C.'.D.E.F.8.9.G.                  ",
"                  H.I.J.K.h.L.M.A N.O.P.p , , , Q.R.S.L.1.'.D.T.U.V.W.X.                  ",
"                  Y.Z.`.w *.b  +.+N y.2.++, , , @+y.#+$+1.%+k.&+*+=+8.-+                  ",
"                ;+>+,+K., , 0 b o '+C j., , , , c )+!+~+{+]+^+/+(+_+:+<+[+                ",
"            6 }+|+1+2+/ , , , 0 h.=.j., , , , , 0 3+s.4+5+6+7+8+9+0+a+b+c+d+e+            ",
"          6 f+g+h+i+j+w , , , , , , , , , , , , , , k+l+m+n+o+p+9+q+*+r+s+n.t+u+          ",
"        v+w+x+y+z+A+B+w , , , , , , , , , , , , , w C+D+E+F+G+H+I+J+K+L+M+N+O+P+Q+        ",
"      R+S+T+U+V+W+D+X+^.w , , , , , , , , , , , , Y+Z+`+ @.@+@+@+@@@#@$@%@&@*@=@-@;@      ",
"    >@,@'@)@!@~@{@]@^@A+/@w w , , , , , , , w w Y+(@_@:@<@[@+@@@@@}@|@1@2@3@4@*@5@6@7@    ",
"    8@9@0@a@b@c@b@d@e@f@g@h@i@j@1 , , , , w k@l@m@n@o@p@q@r@#@s@|@M+t@u@3@4@4@4@v@w@x@    ",
"    y@z@A@B@C@D@E@F@V+e@G@^@H@h@I@J@J@J@J@K@L@M@N@`+O@P@}@Q@$@R@S@T@c+U@4@4@4@4@4@V@W@    ",
"    X@Y@Z@`@ #.#+#b@V+V+@###$#%#&#*#*#*#*#&#=#-#;#o@>#,#'#s+)#!#~#{#]#4@4@4@4@4@*@^#W@    ",
"    /#(#_#:#<#[#}#|#V+V+V+V+@#1#W+W+W+W+W+W+2#V+3#4#5#6#)#7#8#9#0#a#b#c#4@4@4@*@d#e#f#    ",
"    g#h#i#j#B@k#l#m#V+V+V+V+V+n#n#V+V+V+V+V+V+V+o#p#q#r#7#s#t#u#v#w#x#y#4@4@4@*@z#A#B#    ",
"      C#D#E#F#G#H#I#V+V+V+n#J#K#L#M#V+V+V+V+V+N#O#P#Q#)#n.U@R#S#T#T#u#t#4@4@*@U#V#W#      ",
"      X#Y#Z#`# $.$3#V+V+V++$@$#$$$J#V+V+V+V+N#%$&$<@*$m.8.W.=$-$S#S#;$c#4@*@d#>$,$B#      ",
"      '$)$!$~${$]$^$V+V+V+/$($_$:$<$V+V+V+3#%$[$}$q@@@|$1$2$3$4$5$6$R#*@*@7$#.8$9$0$      ",
"        a$b$c$d$e$f$g$.$V+M#h$($i$/$V+V+V+.$j$k$q@l$+@@@m$r+n$)#o$O+>@p$q$r$s$t$u$        ",
"              v$w$x$y$z$O#O#A$B$C$D$O#O#O#E$F$G$L+H$H$H$H$I$J$K$L$M$N$O$P$Q$              ",
"                R$S$T$U$V$V$V$V$V$V$V$V$V$W$X$Y$Z$`$`$`$`$`$ %.%+%@%#%$%%%                ",
"                      &%*%*%*%*%*%=%-%;%>%,%'%)%!%~%{%]%^%^%/%(%7@_%                      ",
"                                  :%<%[%}%|%1%2%3%4%5%9$                                  ",
"                                    6%7%8%9%0%a%b%c%d%                                    ",
"                                    e%f%g%h%i%h%g%f%e%                                    ",
"                                  j%k%l%m%n%o%n%m%l%k%j%                                  ",
"                                p%q%r%s%t%o%o%o%t%s%r%q%p%                                ",
"                              u%v%w%x%y%z%A%A%A%z%y%x%w%v%u%                              ",
"                              B%C%D%E%F%G%H%H%H%G%F%E%D%C%B%                              ",
"                                I%J%i%K%L%M%M%M%L%K%i%J%I%                                ",
"                                  N%O%P%L%M%M%M%L%P%O%N%                                  ",
"                                    Q%R%L%M%M%M%L%R%Q%                                    ",
"                                                                                          ",
"                                                                                          "};
