/* XPM */
static char *_bc93be01e174ee1c87903473987813fIFbR3FZtFlJ06eJA[] = {
/* columns rows colors chars-per-pixel */
"30 32 11 1 ",
"  c None",
". c #1C1F0A",
"X c #491913",
"o c #651E16",
"O c #513327",
"+ c #7F5C4D",
"@ c #972C1A",
"# c #C4491E",
"$ c #F26926",
"% c #A48477",
"& c #C6AB9F",
/* pixels */
"             oooo             ",
"            o#$$#X            ",
"           o$$$$$$X           ",
"          o$$$$$$$$X          ",
"         o#$$$$$$$$#X         ",
"         o$$$$$&&$$$X         ",
"        o#$$$$$&&$$$@X        ",
"        o$$$$$$$$$$$@X        ",
"       o#$$$$$$$$$$$@oX       ",
"       o$$$&$$$$$$$$@@X       ",
"      o#$$&&&$$$$$$$@@oX      ",
"      o$$$$&$$$$$&$$@@@X      ",
"     o#$$$$$$$$$$$$$@@@oX     ",
"    o#$$$$$$$$$$$$$@@+@@oX    ",
"   o##$$$$$$$$$$$$#@@@@@@oX   ",
"  o####$$$$$$$$$$$#@@@@@oooX  ",
" X@#####$$$$$$$$$#@@@@@ooooo. ",
" X##%%####$$$$$###@@@ooooooo. ",
" X##%%############@ooooooooo. ",
" X@##############@oooOOooooX. ",
"  X##############@oooOOoooo.  ",
"  X@######%#####@@@oooooooX.  ",
"   XX@#########@@@@@@ooooX.   ",
"     XX########@@@@@@oX..     ",
"       XXXXXXXXX.......       ",
"            XO++OX            ",
"            X+%%+X            ",
"           XO%%%%OX           ",
"          XO+%%%%+OX          ",
"          X+%&&&&%+X          ",
"           +%&&&&%+           ",
"            %&&&&%            "
};
