/* XPM */
static char * ded0_xpm[] = {
"48 48 8 1",
" 	c None",
".	c #2A1D0D",
"+	c #45230D",
"@	c #773421",
"#	c #392A1C",
"$	c #927E6A",
"%	c #684C3C",
"&	c #550F0A",
"                                                ",
"                     ......                     ",
"                     ......                     ",
"                     .+++++                     ",
"                     @##@##                     ",
"                     @##@##                     ",
"                     .@@@@@                     ",
"                      .....                     ",
"                      .....                     ",
"                      +++                       ",
"                $$$%%$@@@@@$%%$                 ",
"                $$$%%$@@@@@$%%$                 ",
"               $$$$%%$$$$$$$%%$$$               ",
"             $$$$$$%%$$$$$$$%%$$$$              ",
"             $$$$$$%%$$$$$$$%%$$$$              ",
"            $$$$$$#%%%%%%%%%%%%$$$              ",
"            $$$$###%%%%%%%%%%%%$$$$$            ",
"            $$$$###%%%%%%%%%%%%$$$$$            ",
"            $@@@@@@%%%%%@@@$%%%@@@@@            ",
"            $@@@@@@@@@@@@&&$@@%@@@++            ",
"            $@@@@@@@@@@@@&&$@@%@@@++            ",
"             ++@@@@@@@++#&&&@@@@@+              ",
"               +++++++##%&&&+++++               ",
"               +++++++##%&&&+++++               ",
"                ######%%%######                 ",
"                $$#%%%%%%%%%%%%                 ",
"                $$#%%%%%%%%%%%%                 ",
"                $$#%%%%%%%%%%%%                 ",
"                ++.%%%%%%%%%%%%                 ",
"                ++.%%%%%%%%%%%%                 ",
"                ++.%%%%%%%%%%%%                 ",
"                ++.%%%%%%%%%%%%                 ",
"                ++.%%%%%%%%%%%%                 ",
"                ++.%%%%%%%%%%%%                 ",
"                ++.%%%%%%%%%%%%                 ",
"                ++.%%%%%%%%%%%%                 ",
"                ++.%%%%%%%%%%%%                 ",
"                ++.%%%%%%%%%%%%                 ",
"                ++.%%%%%%%%%%%%                 ",
"                  .%%%%%%%%%%%%                 ",
"                  ....     ....                 ",
"                  ....     ....                 ",
"                  ++++     ++++                 ",
"                %%%+++     +++%%%               ",
"                %%%+++     +++%%%               ",
"                ++++++.....++++++               ",
"                  .............                 ",
"                  .............                 "};
