/* XPM */
static char * door_open_xpm[] = {
"48 48 7 1",
" 	c None",
".	c #291D0C",
"+	c #604019",
"@	c #4C3212",
"#	c #3D2A0F",
"$	c #2D3335",
"!	c #a88c2f",
"                                                ",
"         !!!!!!!!!!!!!!!!!!!!!!!!!!!!!!         ",
"        !++++++++++++++++++++++++++++++!        ",
"        !@@@@@@@@@@@@@@@@@@@@@@@@@@@@@@!        ",
"        !@@@@@@@@@@@@@@@@@@@@@@@@@@@@@@!        ",
"        !!............................!!        ",
"          !@#......................#@!          ",
"          !@#......................#@!          ",
"          !@@......................@@!          ",
"          !@@......................@@!          ",
"          !@@......................@@!          ",
"          !@@$.....................@@!          ",
"          !@@$.....................@@!          ",
"          !@@......................@@!          ",
"          !@@......................@@!          ",
"          !@@......................@@!          ",
"          !@#......................#@!          ",
"          !@#......................#@!          ",
"          !@#......................#@!          ",
"          !@#......................#@!          ",
"          !@#......................#@!          ",
"          !@#......................#@!          ",
"          !@#......................#@!          ",
"          !##......................##!          ",
"          !##.......................#!          ",
"          !@#.......................@!          ",
"          !@#.......................@!          ",
"          !##.......................#!          ",
"          !##.......................#!          ",
"          !@#......................#@!          ",
"          !@#......................#@!          ",
"          !@#......................#@!          ",
"          !@#......................#@!          ",
"          !@#......................#@!          ",
"          !@#$.....................#@!          ",
"          !@#......................#@!          ",
"          !@#......................#@!          ",
"          !@#......................#@!          ",
"          !@#......................#@!          ",
"          !@@......................@@!          ",
"          !@@......................@@!          ",
"          !##......................##!          ",
"          !##......................##!          ",
"          !##......................##!          ",
"          !##......................##!          ",
"          !!!!!!!!!!!!!!!!!!!!!!!!!!!!          ",
"                                                ",
"                                                "};
