/* XPM */
static char * door_closed_xpm[] = {
"48 48 49 1",
" 	c None",
".	c #30210D",
"+	c #291D0C",
"@	c #5E3F18",
"#	c #5F3F19",
"$	c #2E200D",
"%	c #4C3212",
"&	c #2C1F0C",
"*	c #4A3112",
"=	c #2C1E0C",
"-	c #2D1F0D",
";	c #2B1E0C",
">	c #3D2A0F",
",	c #2A1D0C",
"'	c #3C2A0F",
")	c #2A1E0C",
"!	c #3C290F",
"~	c #4B3212",
"{	c #3E2B0F",
"]	c #3E2A0F",
"^	c #4B3112",
"/	c #2A1F11",
"(	c #291F11",
"_	c #4B3319",
":	c #2B2115",
"<	c #4A3319",
"[	c #2C2115",
"}	c #2A2015",
"|	c #4A3219",
"1	c #2C2012",
"2	c #2D3335",
"3	c #3B3E47",
"4	c #2E3436",
"5	c #4B3215",
"6	c #2D3233",
"7	c #3A3C45",
"8	c #3A3D45",
"9	c #2D3234",
"0	c #291E0E",
"a	c #4C3215",
"b	c #2A1F10",
"c	c #2B1F10",
"d	c #2A1E10",
"e	c #2C1F10",
"f	c #2B1F0E",
"g	c #2D3334",
"h	c #3B3D46",
"i	c #2E3335",
"j	c #3C2A13",
"                                                ",
"         ..............................         ",
"        +@#############################$        ",
"        +%%%%%%%%%%%%%%%%%%%%%%%%%%%%%%&        ",
"        +******************************=        ",
"        ++--;++++++++;;++;;++++++++;--++        ",
"          %%>+++++;;+>>,+'>);;+++++!~%          ",
"          %%{++;;+>>,]{,+]{)'>);;++>~%          ",
"          %%%,+]{+]{,~%)+^%;]{)>{)+^%%          ",
"          %%%,+%%,~%)~%)+^%;^%;^%;+^%%          ",
"          %%%/(__:__:<_[}|_[|_[|_1(^%%          ",
"          %%%22333333333333333333425%%          ",
"          %%%66788888888888888888965%%          ",
"          %%%,+))+))+))++))+))+))++^%%          ",
"          %%%,+>>+>>,>>,+'>)'>)'>)+^%%          ",
"          %%~,+>>+>>,>>,+'>)'>)'>)+*%%          ",
"          %%>++]]+]],>],+>])>])>])+!~%          ",
"          %%>++%%,~%)~%)+^%;^%;^%;+!~%          ",
"          %%>++%%,~%)~%)+^%;^%;^%;+!~%          ",
"          %%>++%%,~%)~%)+^%;^%;^%;+!~%          ",
"          %%>++%%,~%)~%)+^%;^%;^%;+!~%          ",
"          %%>++%%,~%)~%)+^%;^%;^%;+!~%          ",
"          ~~>++%%,~%)~%)+^%;^%;^%;+!^~          ",
"          >>>++%%,~%)~%)+^%;^%;^%;+!>>          ",
"          ]]>++%%,~%)~%)+^%;^%;^%;++>]          ",
"          %%>++%%,~%)~%)+^%;^%;^%;++^%          ",
"          %%>++%%,~%)~%)+^%;^%;^%;++*%          ",
"          >>>++%%,~%)~%)+^%;^%;^%;++!>          ",
"          ]]>++%%,~%)~%)+^%;^%;^%;+,>]          ",
"          %%>++%%,~%)~%)+^%;^%;^%;+!~%          ",
"          %%>++%%,~%)~%)+^%;^%;^%;+!~%          ",
"          %%>++%%,~%)~%)+^%;^%;^%;+!~%          ",
"          %%>++%%,~%)~%)+^%;^%;^%;+!~%          ",
"          %%>005ab5ac5acd5ac5ae5af0!~%          ",
"          %%>gghhhhhhhhhhhhhhhhhhigj~%          ",
"          %%>++++++++++++++++++++++!~%          ",
"          %%>++>>+>>,>>,+'>)'>)'>)+!~%          ",
"          %%>++>>+>>,>>,+>>)>>)>>)+!~%          ",
"          %%>++%%,~%)~%)+^%;^%;^%;+'~%          ",
"          %%%,+%%,~%)~%)+^%;^%;^%;+^%%          ",
"          %%%,+%%,~%)~%)+^%;^%;^%;+^%%          ",
"          >>>++%%,~%)~%)+^%;^%;^%;+!>>          ",
"          >>>++%%,~%)~%)+^%;^%;^%;+!>>          ",
"          >>>++%%,~%)~%)+^%;^%;^%;+!>>          ",
"          >>>++%%,~%)~%)+^%;^%;^%;+!>>          ",
"          >>>++%%,~%)~%)+^%;^%;^%;+!>>          ",
"                                                ",
"                                                "};
