/* XPM */
static char * floor48_xpm[] = {
"48 48 321 2",
"  	c #8B5D2C",
". 	c #8B5C2B",
"+ 	c #8D5E2D",
"@ 	c #8A5D2C",
"# 	c #A16C2D",
"$ 	c #9F6B30",
"% 	c #9F6C2F",
"& 	c #9E6A2F",
"* 	c #9F6B2F",
"= 	c #9F6B2D",
"- 	c #9F6B2E",
"; 	c #9F6C30",
"> 	c #9E6C2E",
", 	c #9D6B2F",
"' 	c #9D6C2E",
") 	c #A06B30",
"! 	c #9E6B2F",
"~ 	c #A06A30",
"{ 	c #A06B2E",
"] 	c #9F6A2E",
"^ 	c #9F6A2F",
"/ 	c #9F6D2E",
"( 	c #9E6D2F",
"_ 	c #9F6C2E",
": 	c #9E6B2E",
"< 	c #8C5E2D",
"[ 	c #8A5B2C",
"} 	c #8A5C2C",
"| 	c #8B5D2D",
"1 	c #8B5D2B",
"2 	c #8C5D2B",
"3 	c #8B5C2C",
"4 	c #8C5E2C",
"5 	c #8C5D2C",
"6 	c #8A5D2D",
"7 	c #9F6C31",
"8 	c #9E6C30",
"9 	c #A06B2F",
"0 	c #9E6B30",
"a 	c #A06A2F",
"b 	c #9E6B2D",
"c 	c #9E6C2F",
"d 	c #9F6A30",
"e 	c #8C5F2C",
"f 	c #8B5D2E",
"g 	c #8B5C2D",
"h 	c #8B5E2C",
"i 	c #96622F",
"j 	c #95652D",
"k 	c #95642E",
"l 	c #94632D",
"m 	c #94642E",
"n 	c #96642D",
"o 	c #96652D",
"p 	c #96632E",
"q 	c #A06A2E",
"r 	c #A06C30",
"s 	c #9D6A2F",
"t 	c #94642C",
"u 	c #94642D",
"v 	c #94622C",
"w 	c #95632E",
"x 	c #95632D",
"y 	c #94632C",
"z 	c #93652E",
"A 	c #93632D",
"B 	c #93642D",
"C 	c #95642D",
"D 	c #94632E",
"E 	c #93632E",
"F 	c #94652E",
"G 	c #9D6A30",
"H 	c #9E692F",
"I 	c #95642F",
"J 	c #94622D",
"K 	c #96652E",
"L 	c #9E6C2C",
"M 	c #9F6A2D",
"N 	c #9E6C2D",
"O 	c #95632C",
"P 	c #93632C",
"Q 	c #93622F",
"R 	c #94652D",
"S 	c #9E6A2E",
"T 	c #9E6A2C",
"U 	c #93642E",
"V 	c #94622E",
"W 	c #95652F",
"X 	c #93622C",
"Y 	c #95652E",
"Z 	c #95632F",
"` 	c #9F692E",
" .	c #9D6B2D",
"..	c #9E6D2E",
"+.	c #9F6C2C",
"@.	c #9F6B2C",
"#.	c #94622F",
"$.	c #93622E",
"%.	c #96632D",
"&.	c #8F602D",
"*.	c #8D5F2D",
"=.	c #8E5D2D",
"-.	c #8D5E2E",
";.	c #8D602C",
">.	c #8E602E",
",.	c #8E5F2C",
"'.	c #8E5F2D",
").	c #8E612D",
"!.	c #93612E",
"~.	c #9E6A30",
"{.	c #8E5E2C",
"].	c #8D5E2B",
"^.	c #8D5F2C",
"/.	c #8F5F2E",
"(.	c #8F5F2B",
"_.	c #8E602D",
":.	c #8D5E2C",
"<.	c #95622E",
"[.	c #93642A",
"}.	c #9D6B2E",
"|.	c #A06C2F",
"1.	c #9D6B30",
"2.	c #9F692F",
"3.	c #9F6B31",
"4.	c #9F6D2F",
"5.	c #96642E",
"6.	c #9D6B2C",
"7.	c #A06C2E",
"8.	c #A06B2D",
"9.	c #9D6A2E",
"0.	c #A16A2D",
"a.	c #92632D",
"b.	c #93622D",
"c.	c #7E5129",
"d.	c #7F5027",
"e.	c #7E5028",
"f.	c #7E5027",
"g.	c #7D4F27",
"h.	c #7D5128",
"i.	c #805329",
"j.	c #85562A",
"k.	c #87572B",
"l.	c #86572B",
"m.	c #86562B",
"n.	c #85562B",
"o.	c #85572A",
"p.	c #87562B",
"q.	c #85572B",
"r.	c #845629",
"s.	c #87552A",
"t.	c #85562C",
"u.	c #84562A",
"v.	c #84562B",
"w.	c #86572A",
"x.	c #88582A",
"y.	c #85582B",
"z.	c #86562A",
"A.	c #86572C",
"B.	c #87582B",
"C.	c #7D5028",
"D.	c #7E5128",
"E.	c #7D5027",
"F.	c #7C5027",
"G.	c #82552A",
"H.	c #87572C",
"I.	c #86592C",
"J.	c #86582A",
"K.	c #86582B",
"L.	c #87582C",
"M.	c #86582C",
"N.	c #87582D",
"O.	c #87572A",
"P.	c #86562C",
"Q.	c #88582B",
"R.	c #95612C",
"S.	c #92642D",
"T.	c #93632F",
"U.	c #94642F",
"V.	c #91622B",
"W.	c #9D6C30",
"X.	c #966330",
"Y.	c #94632F",
"Z.	c #91622A",
"`.	c #9E692D",
" +	c #9D6C2F",
".+	c #956330",
"++	c #95662E",
"@+	c #9F6D31",
"#+	c #92632B",
"$+	c #93632B",
"%+	c #92612A",
"&+	c #946228",
"*+	c #936228",
"=+	c #93622B",
"-+	c #92612B",
";+	c #91622C",
">+	c #92622A",
",+	c #92612C",
"'+	c #92622C",
")+	c #91602B",
"!+	c #93622A",
"~+	c #935F29",
"{+	c #94612A",
"]+	c #92622B",
"^+	c #936129",
"/+	c #98662D",
"(+	c #98672D",
"_+	c #97652D",
":+	c #98652F",
"<+	c #97672E",
"[+	c #96662E",
"}+	c #97652E",
"|+	c #98662C",
"1+	c #96672D",
"2+	c #97642F",
"3+	c #97662D",
"4+	c #99662D",
"5+	c #96662D",
"6+	c #97632E",
"7+	c #9E6D30",
"8+	c #93642F",
"9+	c #94632B",
"0+	c #946430",
"a+	c #956430",
"b+	c #946330",
"c+	c #93652F",
"d+	c #93652D",
"e+	c #9E6A2D",
"f+	c #9D6D2F",
"g+	c #96642F",
"h+	c #84572A",
"i+	c #84552A",
"j+	c #825529",
"k+	c #82532A",
"l+	c #835429",
"m+	c #815429",
"n+	c #81542A",
"o+	c #815228",
"p+	c #835428",
"q+	c #805227",
"r+	c #855729",
"s+	c #85552A",
"t+	c #845529",
"u+	c #835629",
"v+	c #85552C",
"w+	c #835529",
"x+	c #85542B",
"y+	c #83562B",
"z+	c #85552B",
"A+	c #845729",
"B+	c #855628",
"C+	c #81532A",
"D+	c #825328",
"E+	c #825329",
"F+	c #815329",
"G+	c #825429",
"H+	c #805229",
"I+	c #815328",
"J+	c #815428",
"K+	c #855629",
"L+	c #865629",
"M+	c #83552A",
"N+	c #845429",
"O+	c #83542A",
"P+	c #83552B",
"Q+	c #83562A",
"R+	c #835528",
"S+	c #93642C",
"T+	c #95622D",
"U+	c #9D6A2D",
"V+	c #95642C",
"W+	c #9D692F",
"X+	c #9E6C31",
"Y+	c #A06B31",
"Z+	c #9E6B2C",
"`+	c #94652F",
" @	c #92632E",
".@	c #946530",
"+@	c #936330",
"@@	c #96662F",
"#@	c #9E6930",
"$@	c #9C6A2E",
"%@	c #84552B",
"&@	c #85542A",
"*@	c #7C4F28",
"=@	c #7C5128",
"-@	c #7E5126",
";@	c #7E5127",
">@	c #84572B",
",@	c #835729",
"'@	c #825528",
")@	c #82552B",
"!@	c #7C5028",
"~@	c #7E5026",
"{@	c #9C6B2F",
"]@	c #A16C2E",
"^@	c #9C6B2E",
"/@	c #9E692E",
"(@	c #915F2A",
"_@	c #91602A",
":@	c #92602A",
"<@	c #916029",
"[@	c #915F2B",
"}@	c #926129",
"|@	c #90622A",
"1@	c #906028",
"2@	c #90612A",
"3@	c #916129",
"4@	c #9C6A2F",
"5@	c #9E6A2B",
"6@	c #A06B2C",
"7@	c #9F6C2D",
"8@	c #A06A2C",
"9@	c #9F6A2C",
"0@	c #A06C2C",
"a@	c #95612E",
"b@	c #99672F",
"c@	c #99672E",
"d@	c #9C6A2D",
"e@	c #96652F",
"f@	c #92622D",
"  . + @ # $ % & * = - ; % & > , ' ) > ! ~ { ] % ^ * / ( ! _ & ! _ : * $ > , , < [ } | 1 2 3 }   ",
". 4 5 6 7 ; % * : * _ ! : 8 8 * ! 9 % $ ; * 0 - ! ] * 8 : * , * a b : c d > : @ e | f . | g h   ",
"i j k l m m n o p _ * & q $ ! r ^ $ > s * 8 ! ; ; ! : * t m l n u v w x u x y l z A y B l C B D ",
"E k C w l x F m l G - ) * ! * c ! ! d 8 H * & ( ! 9 ^ _ C w l l D x I w m l p J w J m C K D D D ",
"^ ] * * L & M ) s & N * _ t t x x D x E K w u u D O m t P P Q I R D l x k D u - S , T : ! ^ : 9 ",
"* 9 ! & ^ * ; - - 0 S 0 & y U l V m w l m I J W m F m w w m l X Y Z C k D k F 0 S : - % 0 & ! - ",
"`  .{ : ..: c +.= 8 @.c _ l I u O m D E D D U #.Z l m w l w z m D m y $.%.m D : 0 S * S - ! S ! ",
"&.*.=.-.*.;.*.>.,.'.).j !.Z k l D y % ; * c c * - % c : : * * ~.* % : % % ! & : & ! 0 : > 0 * - ",
"{.].^.+ ,.'./.&.(._.:.l p D l D <.[.S % c 7 & }.! |.- * & 1.2.& - * * ! * ; }.- S 8 * > ^ { c S ",
"c ! * 3.}.4.$ $ 8 - % 9 & : & * % ! 0 ! * - - * c * - c & 0 * , ! - ; > ! , $ k U k w u D 5.E u ",
"S S 6.] M { _ > * - > _ - : ! 7.' b ^ S 8.- & * ` : S r 9.& M % 0.{ b _ : : > l a.B l b.o u E y ",
"c.d.e.f.g.h.i.j.k.l.m.n.o.p.o.q.r.s.l.t.u.n.v.l.l.l.q.m.l.k.w.w.n.m.q.l.x.k.l.w.y.q.z.w.n.A.j.B.",
"C.D.C.E.F.D.G.H.I.m.J.K.m.o.L.l.K.L.A.l.K.M.m.K.m.j.n.q.o.N.m.K.B.m.J.q.K.l.B.z.o.B.k.O.w.P.Q.y.",
"R.w B l S.l D w C $.T.Y <.U.x m D w T.V.s * r & ^ > * - 8 _ % W.S ! * 7.! S : : c ] c * ] : ^ = ",
"D A k w w E X.F D m m E E m D Y.m I E Z.! `.: : ^ & * * % c , % 9.! : 0 s * ' * 7., * % 0 c - $ ",
"d  +> % c % % > ~.! % c - * 8 c - * * }.9 * > S c * C D R C y D k l l u u T..+w X I x b.U m C u ",
"d s c > c * ! $ : $ ! ] $ 9.S * : : ! c * _ c 0 - _ R k V k x ++w I m p u D m x u k u j U z w m ",
"d * ! ^ ! % @+#+$+Z.%+&+#+*+=+-+;+>+,+'+)+!+~+{+]+^+u C u E k m w /+(+_+:+<+[+}+|+1+2+o 3+4+5+6+",
"- : 4.: > 7+; u F w w u m K I C B 2+Y l A C C l k w 5.8+u k m u w }.% 9.* 9 % ^ 0 ; ^ W.c - - - ",
": 0 _ ! : & |.l u 9+l U 0+a+0+Y.u w m 0+0+C #.0+b+c+Z P 0+8+I D Q 0 ! - |.> * - 9.- , c > * , > ",
"C C C D l m <.0+P A Z ! }.0 ! * $ 1.9 % s $ ! > ! ! }.* & S $ * 0 , }.: d 0 }.! S $.D E D u k l ",
"R A k I u 8+k u <.W l * _ ! % c c * $ & ! $ = c ! , - _ & ! , % ! *  .0 ^ , * : ' B u y w k z w ",
": % * 0 $ 9.- % ! : ; * : - 7.0 r , > ! - ! * : * ; % > ! * c ! $ l l k I l m k m O k d+u 5.5.R ",
"& * e+! : * * * % $ ! > : , * ! : : $ * ! * % S - ! > $ : * * : f+m D w g+m w m U.D k u m D o Y ",
"m.h+n.i+j+j+k+l+m+n+o+p+m+q+n+l.o.q.z.r+v.s+t+q.s+u+u.v+t+w+t+i+x+i+y+h+z+o.v.v.w+m.j.A+y.m.v.n.",
"u.B+n.i+C+D+E+F+G+n+H+I+J+H+D+l.K+A.q.z.j.i+K+L+u.i+u+M+N+M+O+P+Q+Q+R+i+i+Q+w+w+l+L+P+Q+j.q.A+q.",
"J S+p l D m D t l D m k l U a.O m l o x l u & : ! s ! _ s M ^ : & : S : - - $ S ! 9._ _ - c }.: ",
"m l m m T+D B k g+I m D C l w #.J P u l $.U * ! - - * $ * |.8 - * : S * & - _ ^ ! - $ % c : : - ",
"& 0 % ! S }.c  +: 8 U+! & 8 c ! & }.b , % :  .: & * 5.l b.D E x u A u u m $.k U B V+l B C Y.l R ",
"W+% ! * : ; X+& ; - $ % % }.S Y+! , ! : & - % 0 * ! B x k T.V x m D D A w l D C u D y w S.w k u ",
": { Z+^ L 8.# = _ : ! c % }.! S  +! ! ! 9.! c ; , * .+U.Y.8+k `+8+E E  @m A 8+S.B .@I U..@+@E U.",
"8+D l <.E l C C x 0 $ % > ! _ , & :  +; ! & % * ! ! * 8 : b ! ! : % ! ; * & $ s S : ! ! ^ , !  .",
"X x k T+m l w m u * }.^ ] 8 % c * 8 c ! : S ! ! * ( ! * ! ! ) _ > { _ ! S > 0 ^ * 0 S S $ ] : * ",
"l S+u m I m k U.k D P m <.C m x V w `+u B Z k k I I k T+D J Y 5.C ] S ] S : 0 { ! : 0  ., ^ _ ] ",
"t C k Y.F T.w Y.O @@x j m A m u u m p z x m d+C k t m w v U E l k c % ! ! > 1.~.- ! s S $ c % #@",
": _ |.% 9.$@_ ~.- - c c 9 ; ! ! : c - ; b { k t %.J l C A D w m E D $.m w C T.k %.k Y b.m l S+l ",
"* ! a 8 ! $ s > ! * ! * 9 % * c 8 , &  +^ 3.C w l C l V A D m u k Y.v D E u m D x k w A A $.a.u ",
"n.j.i+r.%@v.i+j.w+j.i+u.u.u.u.u.u+i+q.n.r.j.r.O.i+r.Q+o.u.n.i+j.u+i+i+A+j.Q+u+&@G.C.*@h.=@e.-@;@",
"i+r+v.s+o.r.u.>@m.n.i+%@i+i+u.s+i+j.n.K+,@x+u.u.j.j.m.%@u+v.i+Q+u.h+t+P+i+'@l+j.)@!@g.F.=@h.C.~@",
"~.>  +1._ $ |.9.! c ! ; * 4.c 0 $ , % 8 * ; , % 9 ! * - > ; 8 {@1.7.s 7 ! c $ ]@! 0 }.* & G _ : ",
"$ > & ! : ! * ^@}.* $ ^ ! - ! S  .! c b - S & ! S 8 : & ! ) /@: ! > }.& > 4.r , - * : % ! : S ! ",
"(@%+_@:@<@[@}@|@1@:@2@,+:@3@3@- b * , $ ! % ! ! * c ; & ! s $ |.: - > ! }.: {@) S ; : $ $@& ! * ",
"m Y.U.Y.U.D m C A m C <.E P D ! ] 9 d * & ; S ~., & ! - ! ! c 4@: * ! % }.& : ! : 0 : }.: 9.! ] ",
"J V y y u Y P E l D l D T.l o = 5@6@7@Z+e+@.= +.6.8@> 7@9@= 0@7@N 0 S * : ! % b ] N M Z+@._ M 8.",
"& : % * % > S ! : w x x J V u m m y J l A Y.t l J J C a@V A w A b@! s ! % ^ d w l k V k k U E x ",
"! % > * : 9 , 1.* C A k l J u t B I Y m u F t k T.A y D l #.Y.E c@d@c & S {@- u A y m U A l A Z ",
"; c $ & c 3.! $ : 8 > ^ - & * * * ! * 1.S 0 ! & c ' l k l u m `+w D k x l E D D E w l U e@P w m ",
"$ 8 - & : 0 ^ c ! & ; , ] d ! & U+}.0 & % ! ] % ! }.m l f@A D l <.w U k v D Y.V D m D V F x u A "};
