/* XPM */
static char * floor2_xpm[] = {
"48 48 510 2",
"  	c #ABB0AF",
". 	c #969993",
"+ 	c #A1A19D",
"@ 	c #92928E",
"# 	c #9A9A9A",
"$ 	c #A2A2A2",
"% 	c #9E9F9C",
"& 	c #939391",
"* 	c #81827F",
"= 	c #828380",
"- 	c #9B9B99",
"; 	c #8D8D8B",
"> 	c #929592",
", 	c #8A8D8A",
"' 	c #919491",
") 	c #818480",
"! 	c #8E908D",
"~ 	c #838683",
"{ 	c #7B7E7B",
"] 	c #7D807F",
"^ 	c #7C7F7E",
"/ 	c #808080",
"( 	c #858480",
"_ 	c #33342F",
": 	c #90918E",
"< 	c #A8A8A8",
"[ 	c #888888",
"} 	c #949492",
"| 	c #8F9190",
"1 	c #898989",
"2 	c #8C8C8A",
"3 	c #747572",
"4 	c #8F8F8F",
"5 	c #878789",
"6 	c #8D8C8F",
"7 	c #7F7F7F",
"8 	c #7E8180",
"9 	c #868688",
"0 	c #818183",
"a 	c #7A7A7C",
"b 	c #79797B",
"c 	c #828282",
"d 	c #7B7C79",
"e 	c #727272",
"f 	c #8C8F8E",
"g 	c #3B3F40",
"h 	c #7E817E",
"i 	c #616463",
"j 	c #858585",
"k 	c #706F72",
"l 	c #737576",
"m 	c #717372",
"n 	c #797B7A",
"o 	c #767978",
"p 	c #7B7D7D",
"q 	c #7A7C7B",
"r 	c #747676",
"s 	c #727776",
"t 	c #6F7472",
"u 	c #737574",
"v 	c #6F6F6F",
"w 	c #747474",
"x 	c #5C5C5A",
"y 	c #6F6F6B",
"z 	c #797977",
"A 	c #30302E",
"B 	c #777873",
"C 	c #878883",
"D 	c #767472",
"E 	c #7A7776",
"F 	c #7C7A78",
"G 	c #7D7D7B",
"H 	c #7E7E7E",
"I 	c #6A6A68",
"J 	c #3D3D3D",
"K 	c #666666",
"L 	c #777777",
"M 	c #737373",
"N 	c #656565",
"O 	c #636363",
"P 	c #616161",
"Q 	c #646464",
"R 	c #696969",
"S 	c #5E5F5C",
"T 	c #5E615D",
"U 	c #5C5E5F",
"V 	c #757877",
"W 	c #AEB1AE",
"X 	c #6C6C6C",
"Y 	c #767676",
"Z 	c #787A79",
"` 	c #8B8E8D",
" .	c #727475",
"..	c #757779",
"+.	c #797979",
"@.	c #6D6D6D",
"#.	c #7B7B7B",
"$.	c #7E7E7C",
"%.	c #636361",
"&.	c #151611",
"*.	c #363634",
"=.	c #787974",
"-.	c #7B7977",
";.	c #777576",
">.	c #787675",
",.	c #727270",
"'.	c #686866",
").	c #686868",
"!.	c #5D5D5D",
"~.	c #6A6A6A",
"{.	c #5E5E5E",
"].	c #666764",
"^.	c #4C4F4C",
"/.	c #3B3D3D",
"(.	c #848786",
"_.	c #767674",
":.	c #6E6B6C",
"<.	c #6C696A",
"[.	c #727473",
"}.	c #838685",
"|.	c #76787A",
"1.	c #6B6C70",
"2.	c #6C6B70",
"3.	c #727176",
"4.	c #7B7B7D",
"5.	c #7A7A7A",
"6.	c #717171",
"7.	c #242520",
"8.	c #373733",
"9.	c #7A7577",
"0.	c #7C7877",
"a.	c #817E7D",
"b.	c #7A7B78",
"c.	c #777775",
"d.	c #6B6B6B",
"e.	c #61615F",
"f.	c #626260",
"g.	c #535653",
"h.	c #434643",
"i.	c #353837",
"j.	c #888986",
"k.	c #73716D",
"l.	c #737471",
"m.	c #6F7271",
"n.	c #868686",
"o.	c #6B6D6E",
"p.	c #737375",
"q.	c #747476",
"r.	c #707070",
"s.	c #242422",
"t.	c #343532",
"u.	c #7E7C7D",
"v.	c #757273",
"w.	c #6D6B69",
"x.	c #7F7D7E",
"y.	c #777574",
"z.	c #6D6E6B",
"A.	c #626262",
"B.	c #636564",
"C.	c #5A5D5C",
"D.	c #565857",
"E.	c #818382",
"F.	c #393937",
"G.	c #787878",
"H.	c #6C6E6F",
"I.	c #6D6D6F",
"J.	c #686C6D",
"K.	c #222222",
"L.	c #2C2D2A",
"M.	c #82807E",
"N.	c #686664",
"O.	c #73716F",
"P.	c #656663",
"Q.	c #5F5F5F",
"R.	c #5E605F",
"S.	c #5F6161",
"T.	c #585A5A",
"U.	c #393B3A",
"V.	c #606360",
"W.	c #727274",
"X.	c #717173",
"Y.	c #6C6C6E",
"Z.	c #6E7273",
"`.	c #78787A",
" +	c #242424",
".+	c #2B2B29",
"++	c #7F7D7C",
"@+	c #6E6C6A",
"#+	c #706E6D",
"$+	c #74726E",
"%+	c #747270",
"&+	c #7D7B79",
"*+	c #6B6C69",
"=+	c #606362",
"-+	c #585858",
";+	c #555756",
">+	c #757875",
",+	c #7D807D",
"'+	c #70706E",
")+	c #808281",
"!+	c #747678",
"~+	c #6D6F71",
"{+	c #6E7072",
"]+	c #252525",
"^+	c #706E6F",
"/+	c #5F605D",
"(+	c #474747",
"_+	c #6F726F",
":+	c #80827F",
"<+	c #585956",
"[+	c #717374",
"}+	c #787A7B",
"|+	c #6C6E6D",
"1+	c #464646",
"2+	c #2F2F2F",
"3+	c #7E7C7B",
"4+	c #6C6A68",
"5+	c #71716F",
"6+	c #5C5E5D",
"7+	c #575958",
"8+	c #3A3C3B",
"9+	c #6A6C69",
"0+	c #464644",
"a+	c #6F7173",
"b+	c #7C7E80",
"c+	c #808283",
"d+	c #6D706D",
"e+	c #292929",
"f+	c #262724",
"g+	c #747172",
"h+	c #716F6E",
"i+	c #787876",
"j+	c #6F6F6D",
"k+	c #5D5F5E",
"l+	c #565658",
"m+	c #535655",
"n+	c #343636",
"o+	c #6C6D6A",
"p+	c #686666",
"q+	c #7D7D7D",
"r+	c #848484",
"s+	c #565656",
"t+	c #757371",
"u+	c #555758",
"v+	c #565859",
"w+	c #484A49",
"x+	c #656361",
"y+	c #6A6869",
"z+	c #6A6C6B",
"A+	c #2C2D28",
"B+	c #2D2E2B",
"C+	c #6A6867",
"D+	c #6F6D6B",
"E+	c #565B5A",
"F+	c #505252",
"G+	c #505254",
"H+	c #4C4F4E",
"I+	c #3C3F3E",
"J+	c #6B6B6D",
"K+	c #5D5F60",
"L+	c #686A6C",
"M+	c #6B6D6C",
"N+	c #6B6D6A",
"O+	c #6E7170",
"P+	c #646665",
"Q+	c #292A25",
"R+	c #383934",
"S+	c #5B5B5B",
"T+	c #5A5A5A",
"U+	c #525755",
"V+	c #525554",
"W+	c #515353",
"X+	c #404241",
"Y+	c #66686A",
"Z+	c #6D6F6F",
"`+	c #30312C",
" @	c #363632",
".@	c #4F5150",
"+@	c #414342",
"@@	c #5C5A5B",
"#@	c #656768",
"$@	c #656766",
"%@	c #666868",
"&@	c #676A69",
"*@	c #32332E",
"=@	c #6E716E",
"-@	c #5C5C5C",
";@	c #575757",
">@	c #5E5B5C",
",@	c #69686B",
"'@	c #606264",
")@	c #44443F",
"!@	c #686B68",
"~@	c #747774",
"{@	c #595C5B",
"]@	c #494B4B",
"^@	c #424444",
"/@	c #676563",
"(@	c #2F2F2B",
"_@	c #42403C",
":@	c #767271",
"<@	c #4F4F4F",
"[@	c #535353",
"}@	c #4E4E4E",
"|@	c #4A4D4C",
"1@	c #7D7B7B",
"2@	c #3F3E3A",
"3@	c #757170",
"4@	c #4D4D4D",
"5@	c #525152",
"6@	c #545356",
"7@	c #767474",
"8@	c #3E3D39",
"9@	c #696766",
"0@	c #5D5E5B",
"a@	c #494949",
"b@	c #6F6D6D",
"c@	c #6C6D68",
"d@	c #232321",
"e@	c #373735",
"f@	c #8C8A89",
"g@	c #52524F",
"h@	c #5B5B59",
"i@	c #5A5A58",
"j@	c #696967",
"k@	c #545454",
"l@	c #4C4C4C",
"m@	c #3A3A3A",
"n@	c #7A7778",
"o@	c #6D6B67",
"p@	c #73746F",
"q@	c #6B6C67",
"r@	c #545452",
"s@	c #555553",
"t@	c #6A6B66",
"u@	c #7B7C77",
"v@	c #181916",
"w@	c #2F2F2D",
"x@	c #514F4D",
"y@	c #5E5C5A",
"z@	c #636562",
"A@	c #676A67",
"B@	c #575855",
"C@	c #555555",
"D@	c #3F3F3F",
"E@	c #484848",
"F@	c #737071",
"G@	c #4C4A48",
"H@	c #666460",
"I@	c #63645F",
"J@	c #62635E",
"K@	c #848482",
"L@	c #61615D",
"M@	c #3D3D3B",
"N@	c #615F5D",
"O@	c #62605F",
"P@	c #5A5D5A",
"Q@	c #50514E",
"R@	c #565754",
"S@	c #505050",
"T@	c #4E4E4C",
"U@	c #484946",
"V@	c #303030",
"W@	c #40413C",
"X@	c #3E3E3C",
"Y@	c #3C3A38",
"Z@	c #383838",
"`@	c #41423D",
" #	c #3F3F3D",
".#	c #323230",
"+#	c #333431",
"@#	c #31312F",
"##	c #383836",
"$#	c #373737",
"%#	c #3A3B38",
"&#	c #3E3E3E",
"*#	c #3A3B36",
"=#	c #41423F",
"-#	c #363636",
";#	c #333333",
">#	c #444442",
",#	c #1C1B17",
"'#	c #272523",
")#	c #2D2B29",
"!#	c #333632",
"~#	c #2A2B26",
"{#	c #2A2A28",
"]#	c #1F201D",
"^#	c #252623",
"/#	c #292927",
"(#	c #21211F",
"_#	c #252221",
":#	c #201E1C",
"<#	c #282828",
"[#	c #282826",
"}#	c #1C1D18",
"|#	c #161712",
"1#	c #878787",
"2#	c #969794",
"3#	c #A5A6A3",
"4#	c #646562",
"5#	c #80807E",
"6#	c #888984",
"7#	c #959392",
"8#	c #8E8C8B",
"9#	c #8E8E8E",
"0#	c #908D8E",
"a#	c #999997",
"b#	c #A0A09D",
"c#	c #4D4D4B",
"d#	c #7F7F7D",
"e#	c #5C5A59",
"f#	c #949396",
"g#	c #8A8886",
"h#	c #898A85",
"i#	c #93938F",
"j#	c #9D9E9B",
"k#	c #3F403B",
"l#	c #6C6A64",
"m#	c #615F5B",
"n#	c #666462",
"o#	c #5F5D5B",
"p#	c #404040",
"q#	c #454545",
"r#	c #83817F",
"s#	c #7E7F7A",
"t#	c #8B8B87",
"u#	c #3B3C39",
"v#	c #696A65",
"w#	c #5F5D59",
"x#	c #535351",
"y#	c #5B5958",
"z#	c #343434",
"A#	c #444444",
"B#	c #7D7D79",
"C#	c #6A6965",
"D#	c #686662",
"E#	c #605E5A",
"F#	c #636160",
"G#	c #605E5C",
"H#	c #868483",
"I#	c #83817D",
"J#	c #63625E",
"K#	c #575853",
"L#	c #4C4C4A",
"M#	c #6F6B6C",
"N#	c #5E5A59",
"O#	c #545253",
"P#	c #555352",
"Q#	c #7D7B77",
"R#	c #6B6666",
"S#	c #6E6C68",
"T#	c #71706C",
"U#	c #6F6D69",
"V#	c #5A5856",
"W#	c #414141",
"X#	c #565151",
"Y#	c #1A1A18",
"Z#	c #706F6B",
"`#	c #62615D",
" $	c #656160",
".$	c #65635F",
"+$	c #585654",
"@$	c #494A47",
"#$	c #5F5B5A",
"$$	c #6C6A66",
"%$	c #454543",
"&$	c #696864",
"*$	c #676561",
"=$	c #75736F",
"-$	c #585652",
";$	c #817D7A",
">$	c #6E6D66",
",$	c #424242",
"'$	c #615F5F",
")$	c #505052",
"!$	c #7D7C75",
"~$	c #575759",
"{$	c #686760",
"]$	c #6D6A6B",
"^$	c #6A6662",
"/$	c #6E6A67",
"($	c #676360",
"_$	c #575553",
":$	c #97958F",
"<$	c #62635C",
"[$	c #91948F",
"}$	c #7A7874",
"|$	c #1B1918",
"1$	c #3B3B3B",
"2$	c #535751",
"3$	c #4E4D49",
"4$	c #4F504D",
"5$	c #686C66",
"6$	c #A5A6A1",
"7$	c #4B4B48",
"8$	c #474745",
"9$	c #313131",
"0$	c #161714",
"a$	c #1C1C1A",
"b$	c #40403E",
"c$	c #323232",
"d$	c #393939",
"e$	c #4B4B4B",
"f$	c #212121",
"g$	c #1D1D1D",
"h$	c #2E3130",
"i$	c #363938",
"j$	c #333536",
"k$	c #333335",
"  . + @ # $ % & * = - * ; > , ' ) ! ~ { ] ^ / ( _ : < [ & } | 1 2 3 4 5 6 7 8 9 0 a b c d e f g ",
"8 h i j k l m n o p 7 / q r s t u v w m u x y z A B C D E F G H I J K L M N O P P Q v H R S T U ",
"V W X X Y ^ V r Z ` 8 q u  . ...+.w @.#.#.$.%.&.*.=.-.;.>.D ,.3 '.e ).K K N R ).O !.~.{.Q ].^./.",
"(._.:.<.q q +.[.V }.] r |.1.2.3.4.L M e 5.H 6.7.8.-.9.0.>.a.* b.M c.).R ).).).d.%.e.f.P K g.h.i.",
"j.k.l.3 M b M m.+.n.^ |. .o.o. .p.4.q.5.5.+.r.s.t.u.v.w.D x.y.w.F Y ~.).z.I d.R ).A.P A.B.C.D.i.",
"E.F.G.+.Y @.6.6.5.c Z l o.H.I.J.I.q.a M H #.v K.L.M.F N.( y.O.D y.I @.'.z.P.R X P Q.Q.R.S.S.T.U.",
"u V.r.W.X z.+.[.p / o H.l X.Y.Z.H.X.`.5.7 5.@. +.+++@+#+$+D E %+&+6.'.P.P.*+).P P A.P =+=+-+;+U.",
">+,+'+r.@.6.r.)+o q #.l !+..!+~+m m.{+M v M 7 ]+.+-.>.E D >.>.E ^+6./+Q N K r.A.A.P O =+B.(+D./.",
"_+:+<+w 5.8 V q u V [.|.[+ .}+}+{+r |+R M ~.1+2+L.D @+>.3+;.4+l.5+/ r.R N ).~.K O d.Q.6+6+d.7+8+",
"9+0+<+M +.Z [.m.L [.r a+ ...b+c+}+o d+X d.N e e+f+>.@+O.O.g+h+i+j++.@.d.N Q N d.O A.Q R.k+l+m+n+",
"o+'.p+Y q+r+p.k |.o.l l l r / r+^ o v ~.X *+o+L.s+E #+h+N.t+#+D j+e w Q R Q {.!.R.i S.7+u+v+n w+",
"_.x+y+M L +.M 6.Y.{+o.~+!+{+l ,+5.V z+K ~.M ).A+B+y.4+O.C+@+D D+3+@.X K Q.P Q.{.Q.P E+D.F+G+H+I+",
"_.C+;.+.6.r.@.v J+K+L+H.o.M+L+N+r.O+~.P+).v ].Q+R+>.&+F h+4+h+%+E X X O A.P S+T+{.S+U+V+W+V+V+X+",
"l.-.<.@.e d.v d.L+Y+H.H.6+O+m.Z+|+X ~.K v '+i+`+ @-.>.>.t+,.*+l.O.@.M X A.A.T+!.;+W+V+W+.@T.;++@",
"I D+@@).M 6.X d.Y.#@B.i i P+$@%@P+&@).d.d.#.3 *@R+c.i+&+t+I l.=@l.X ~.~.N -@;@A.D.m+V+.@D.W+$@U.",
"/+O.>@X e 5.r.X ,@Y+S.C.k+'@i =+m.=+%@P ~.M 3 *@)@t+b.%+D l.*+!@~@L d.O P P ;@T+{@F+W+]@m+;+=+^@",
"y+/@@+i+5+G.H r.v w 6.).P !.T+-@).Q.w ~.@.c.l.(@_@:@++++y.x+%.I j+j+o+Q.A.N <@T+;@[@-+-+}@s+H+|@",
"k :.1@,.l._.v 6.v r.M d.N Q Q A.N P s+X ~.L i+`+2@3@C+#+&+/@x o+c.o+%.O -+{.-@S+-+[@4@[@5@;@.@S.",
"6@7@-.M z 5+R R ~.v Q Q.K P O {.A.A.~.r.Y 6.L _ 8@:@-.D+4+9@<+/+x 0@0@S+;@Q.!.-+T+[@T+;@}@a@H+P+",
"b@^+^+d c@I P Q X R ).P ~.O P P Q A.z.i+P.Y c.d@e@D+f@o+f.x+/+g@h@e.i@'.o+j@P -@s+s+k@s+l@;@m@-+",
"n@D o@p@q@z.Q S+Q.A.r@s@t@f.R P P e N N f.u@'.v@w@x@y@'.z@A@P.B@i@e.0@f.B@S {.-@S+k@s+!.C@O D@E@",
"F@G@H@I@J@e.P /+<@!.$.K@L@j@-@~.-+;@K X 5+J@A M@d@N@O@B@P@V.x <+b.Q@R@<+R@h@<@S@5@k@s@T@U@0@[@V@",
"1@C+W@X@X@Y@Z@`@1+a@1+ #.#t.t.+#.#.#@#@#t.*.*.U@f+++O@.#@#A B+.###A $#%#*.##J &#&#&#*#M@=#*.-#;#",
">#,#'#)#A !#B+e@_ ~#A+{#{#w@]#d@^#/#f+L.(#/#^#s.A _#:#d@(#]#^#d@f+<#V@V@w@[#e+e+[#d@s./#/#}#|#g@",
"1#2#[ 3#% b.I P.'.5+P.j@d@4#e.z l.c._.5#I $.6#c@t@7#8#j@'./+h@z.I %.Q.%.o+h@x h@x e j 9#!.)./++.",
"O 0#1 a#b#5#j@I 5+S x /+b.c#l.j+d 3 j+I j+l.d#+#<+e#/@S 4#,.j@S /+R@e.%.4#y@%.].4#[ f#p.).!.P T+",
"^+g#h#i#j#z.'.f.S s@S ].f./+'.P.'.*+].'.v O e.L.k#l#m#%.0@g@{#s@i@0@e.4#y@n#%.i@o#c#*+{.a@p#q#!.",
"7 r#s#t#G u#/+%.f.i@%.f.B@%.4#f.'.'.*+%.'.O z.{#e@v#'.H@w#<+x#h@h@I ]./@y@N@x+/@y#k@z#;#A#T@x#f.",
"G.D B#d x 4#%.f.P.%.%.o+P.4#].'.%.].P.f.%.].j+{#w@z.h@C#D#E#<+B@x /+S x+D+x+F#G#/@s+[@l@S@B@x z.",
"H#I#i@x I 4#%.%.4#'.I '.*+I ].'.j@].4#].0@'.z./#A ,.f.f.o@J#K#i@<+x %.C+x+o#w./@x+x 0@!.S+-+S+L#",
"M#N#Q.f.z./+,.j@].S *+].O.w.y.t+w.w.x+%.i@*+_.^#M@5+e.9@C+@+/@x+N@B@/+N@x+n#N.#+C+3 B@{.S+P / m@",
"b@O#A.j@P.'.'.o+].P.I *+h+y.#+4+t+>.4+e.h@5+z d@X@5+z.9@D+N.N.F#n#S 0@x+9@O@4+D+h+I z.S+-@T+N D@",
"l.P#-+<+j@P.I S S 4#o+z.3 D+-.D+#+@+D+4#0@e.4#s.M@/@x+9@%+w.@+h+9@P.4#G#9@/@4+x+h+].o+R C@O 5@A#",
"h+-.C@<+4#4#Q Q.0@S ].z.%+O.@+w.#+@+4+F#N@y#/+f+=#x+x+k.Q##+%+h+C+x+F#o#y@].e.%.F#*+P.R T+R }@&#",
"w.R#[@i@4#h@Q.Q.x ].I j@h+4+/@/@N.w.%+n#N.n#].L.%#N@@+S#T#U#h+4+w.O@V#N@e#f.x 0@j@0@f.O {.Z@W#<#",
"G@X#s+x e.;@S <+0@5+I h@x '+O@x+/@w.&+D /@/@'.Y#4#x+O@t+$+Z#`#@+F#o#y@o#G#S h@T %@y@y.@@Q }@D@D@",
" $D+/+e.{.Q.!.{.{.).K 4#0@0@i@S x+/@S#$+k.#+e.f+[#w.O@k.U#.$.$H@O.y@n#%.i@+$%.S+T+/+S /+<+@$&#&#",
"#$F#f.A.!.A.!.T+S+O P f.h@i@h@/+O@4+$$$+U#$$f..+%$9@D+&$*$C#=$`#-$y@F#%./+R@0@P k@s@/+r@B@x#(+&#",
";$+$:.O {.f.!.;@T+T+9#L#x <+<+S N@x+9@w.T#S#'.^# #N./@&$k.k.&$>$J#y@y#G#4#g@0@l@l@S S B@x x S@,$",
"I#U#%.Q P '$-@-+-+T+J Q@i@x#k@C@S S 4#o+*+*+%.^#F.n#x+x+C+@+o@&$m#e#N.9@9@h@Q@k@)$T+!.<+/+S <@W#",
"!$S#*+O A.Q.!.T+s+;@d.S x h@C@C@R@/+%.f.z.e.<+^#A 9@/@F#o#4+&$$$J#G#F#n#n#o#Q@4@~$C@!.x S i@}@A#",
"{$U#3 ]$K S.P T+T+;@[@<+h@<+i@R@R@/+{.%./+f.i@^#B+x+O@9@F#^$/$($.$N@o#O@_$_$Q@s@s@;@-+i@h@S S@A#",
":$<$z.4#].%.T+S+!.s+Q.5@-+s+4#i@/+S+;@;@{.-+S ^#B+N@y#C+O@N.&$H@O@/@N@h@L#P#x#i@s@<+i@i@S f.-+D@",
"[$}$|$e.e.G#;@s+;@Q.Q.k@C@C@S <+-+[@C@S@S@5@r@^#/#o#h+N@C+f.e.S y@y#G#i@r@y@x#T@g@<+r@R@h@B@-@1$",
"2$3$y#l.*+O@!.T+s+k@5@k@;@5@Q@s@5@-+h@5@l@5@s@^#.+t+n#N@N@I '+4#y#y#y#L#s@P#L#L#@$4$Q@<+<+L#A.m@",
"5$6$P#0@i@R@g@S s@i@4$T@T@b.4$R@x#B@/+i@T@+#I 7$L.4$B@9@o#x+0@/+P.L#g@0@r@4$8$U@T@x#4$C@O l@-#9$",
"5$k#%.].o+x#c#B@i@B@%./+'+[#e@Q@x B@x#e.x _.%$0$a$[#4#x Q@B@s@@$'.R@S g@Q@%$@$b$0+T+}@W#-@}@<@c$",
"] T+9$;#9$Z@d$E@e$-#f$c$;#z#Z@&#z#;#]+g$-#D@&#k@f$N J 8+i.h$c$2+V@e+2+V@9$1$^@i.m@i$j$k$-#J Z@,$"};
