/* XPM */
static char * floor3_xpm[] = {
"48 48 298 2",
"  	c #A9A9A9",
". 	c #A1A2A4",
"+ 	c #A2A5A6",
"@ 	c #BCBFC0",
"# 	c #989B9C",
"$ 	c #B0B2B4",
"% 	c #BCBEC0",
"& 	c #BBBEBF",
"* 	c #8C8E90",
"= 	c #A7AAAC",
"- 	c #A8ABAC",
"; 	c #A4A6A8",
"> 	c #9EA1A2",
", 	c #BBBEC0",
"' 	c #959899",
") 	c #ABAEAF",
"! 	c #BBBDBF",
"~ 	c #BDC0C1",
"{ 	c #919495",
"] 	c #A7A9AB",
"^ 	c #A8ABAD",
"/ 	c #A6A9AB",
"( 	c #A3A6A7",
"_ 	c #999B9D",
": 	c #BABDBF",
"< 	c #9A9C9E",
"[ 	c #ACAFB0",
"} 	c #989A9C",
"| 	c #A6A9AA",
"1 	c #A7AAAB",
"2 	c #9D9FA1",
"3 	c #ADB0B1",
"4 	c #BCBFC1",
"5 	c #949799",
"6 	c #A4A7A8",
"7 	c #ACAEB0",
"8 	c #A4A5A4",
"9 	c #898B8D",
"0 	c #B2B5B6",
"a 	c #BABEBF",
"b 	c #B7BBBC",
"c 	c #787C7D",
"d 	c #95999A",
"e 	c #B9BDBE",
"f 	c #9FA3A4",
"g 	c #979A9B",
"h 	c #A4A8A9",
"i 	c #A2A6A7",
"j 	c #85898A",
"k 	c #AFB3B4",
"l 	c #7B7F80",
"m 	c #929697",
"n 	c #949899",
"o 	c #A3A7A8",
"p 	c #888C8D",
"q 	c #ADB1B2",
"r 	c #B8BCBD",
"s 	c #808384",
"t 	c #8E9293",
"u 	c #A7ABAC",
"v 	c #8C8F90",
"w 	c #AEB2B3",
"x 	c #818485",
"y 	c #8D9192",
"z 	c #A6AAAB",
"A 	c #969A9B",
"B 	c #A8ACAD",
"C 	c #969798",
"D 	c #ACB0B1",
"E 	c #B5B9BA",
"F 	c #7A7E7F",
"G 	c #818586",
"H 	c #AAAEAF",
"I 	c #909495",
"J 	c #B6BABB",
"K 	c #868A8B",
"L 	c #75797A",
"M 	c #828687",
"N 	c #8C9091",
"O 	c #919596",
"P 	c #949898",
"Q 	c #ABAFB0",
"R 	c #848889",
"S 	c #777B7C",
"T 	c #8D9091",
"U 	c #939798",
"V 	c #878B8C",
"W 	c #838788",
"X 	c #999D9E",
"Y 	c #B9BCBD",
"Z 	c #8F9394",
"` 	c #7F8384",
" .	c #7D8182",
"..	c #B1B5B6",
"+.	c #BBBFC0",
"@.	c #989C9D",
"#.	c #7C8081",
"$.	c #7E8283",
"%.	c #9EA2A3",
"&.	c #A0A4A5",
"*.	c #A9ADAE",
"=.	c #BDC1C2",
"-.	c #808485",
";.	c #A8AAAC",
">.	c #848788",
",.	c #8B8E8F",
"'.	c #8A8E8F",
").	c #797D7D",
"!.	c #898D8E",
"~.	c #8B8F90",
"{.	c #A1A4A5",
"].	c #9CA0A1",
"^.	c #737778",
"/.	c #797D7E",
"(.	c #B4B8B9",
"_.	c #BFC3C4",
":.	c #9DA1A2",
"<.	c #BCC0C1",
"[.	c #999C9D",
"}.	c #949798",
"|.	c #B3B7B8",
"1.	c #B0B4B5",
"2.	c #B2B6B7",
"3.	c #A0A3A4",
"4.	c #B8BBBC",
"5.	c #979B9C",
"6.	c #9FA2A3",
"7.	c #86898A",
"8.	c #A5A9AA",
"9.	c #A1A5A6",
"0.	c #7A7D7E",
"a.	c #797C7D",
"b.	c #A5A8A9",
"c.	c #9B9FA0",
"d.	c #939697",
"e.	c #9A9E9F",
"f.	c #8F9393",
"g.	c #A5A7A9",
"h.	c #878A8B",
"i.	c #7C8080",
"j.	c #939797",
"k.	c #A6AAAA",
"l.	c #BEC2C3",
"m.	c #BABDBE",
"n.	c #96999A",
"o.	c #909494",
"p.	c #8E9192",
"q.	c #767A7B",
"r.	c #727576",
"s.	c #9C9FA0",
"t.	c #838687",
"u.	c #828586",
"v.	c #A7ABAB",
"w.	c #B4B8B8",
"x.	c #898D8D",
"y.	c #9FA1A3",
"z.	c #8A8D8E",
"A.	c #929596",
"B.	c #898C8D",
"C.	c #808484",
"D.	c #979B9B",
"E.	c #AAAEAE",
"F.	c #7F8283",
"G.	c #7C7F80",
"H.	c #888B8C",
"I.	c #929696",
"J.	c #A9ACAD",
"K.	c #959799",
"L.	c #747879",
"M.	c #707475",
"N.	c #7E8182",
"O.	c #9DA0A2",
"P.	c #9B9E9F",
"Q.	c #B3B6B7",
"R.	c #838787",
"S.	c #A0A4A4",
"T.	c #727677",
"U.	c #A6A8AA",
"V.	c #7B7E7F",
"W.	c #AEB2B2",
"X.	c #767A7A",
"Y.	c #97999B",
"Z.	c #777A7B",
"`.	c #747778",
" +	c #B2B4B7",
".+	c #838588",
"++	c #929597",
"@+	c #818386",
"#+	c #8E9093",
"$+	c #929497",
"%+	c #8D9092",
"&+	c #8E9092",
"*+	c #B9BBBE",
"=+	c #BBBDC0",
"-+	c #B5B7BA",
";+	c #85878A",
">+	c #7C7F81",
",+	c #8F9194",
"'+	c #939698",
")+	c #919396",
"!+	c #8E9193",
"~+	c #B7BABC",
"{+	c #B4B7B9",
"]+	c #828587",
"^+	c #808285",
"/+	c #909395",
"(+	c #919496",
"_+	c #8A8C8F",
":+	c #B8BBBD",
"<+	c #BABCBF",
"[+	c #B3B6B8",
"}+	c #888A8D",
"|+	c #B8BABD",
"1+	c #BFC1C3",
"2+	c #BBBCBE",
"3+	c #BBBEC1",
"4+	c #909396",
"5+	c #8C8F92",
"6+	c #929599",
"7+	c #7F8286",
"8+	c #8D9093",
"9+	c #929498",
"0+	c #84878A",
"a+	c #ADB0B3",
"b+	c #BDBFC3",
"c+	c #BABDC0",
"d+	c #BABDC1",
"e+	c #94979B",
"f+	c #8E9194",
"g+	c #929598",
"h+	c #7C7F82",
"i+	c #8E9094",
"j+	c #86898C",
"k+	c #A9ACB0",
"l+	c #9B9EA1",
"m+	c #8B8E92",
"n+	c #919498",
"o+	c #808386",
"p+	c #8F9195",
"q+	c #919497",
"r+	c #A7AAAD",
"s+	c #BCBFC2",
"t+	c #9C9EA2",
"u+	c #8A8C90",
"v+	c #838689",
"w+	c #84868A",
"x+	c #A4A7AB",
"y+	c #BEC1C3",
"z+	c #A5A6A8",
"A+	c #ACB1B1",
"B+	c #909595",
"C+	c #808585",
"D+	c #7C8182",
"E+	c #B6BBBC",
"F+	c #919696",
"G+	c #818687",
"H+	c #969B9B",
"I+	c #AFB4B4",
"J+	c #B0B5B6",
"K+	c #929797",
"L+	c #818686",
"M+	c #7E8383",
"N+	c #828787",
"O+	c #B5BABA",
"P+	c #AFB4B5",
"Q+	c #9E9FA1",
"R+	c #898E8E",
"S+	c #B6BBBB",
"T+	c #BABFC0",
"U+	c #B1B6B7",
"V+	c #717677",
"W+	c #888D8E",
"X+	c #B8BDBD",
"Y+	c #B9BEBF",
"Z+	c #A8ADAD",
"`+	c #A0A5A5",
" @	c #9DA2A3",
".@	c #878C8C",
"+@	c #B4B9BA",
"@@	c #BABFBF",
"#@	c #B7BCBD",
"$@	c #A6ABAC",
"%@	c #9EA3A3",
"&@	c #B5BBBB",
"*@	c #B3B8B9",
"=@	c #767B7B",
"-@	c #858A8A",
";@	c #B9BEBE",
">@	c #A8ADAE",
",@	c #878C8D",
"'@	c #9FA4A4",
")@	c #9EA3A4",
"!@	c #8A8F8F",
"~@	c #ABB0B0",
"{@	c #A7A8AA",
"]@	c #9DA0A1",
"^@	c #909394",
"/@	c #9A9D9E",
"  . + @ @ # $ % & * = - = ; > , & ' ) ! ~ { ] ^ / ( _ : & < [ & : } | 1 1 ( _ ! @ 2 3 : 4 5 6 7 ",
"8 9 0 a b c d a e f g h i j k a b l m e e i n h o p q a r s t e a h n u i v w e r x y e a z A B ",
"C D E o j F G t H r h I n D J o K L M N H b z O P Q J h R S j T B r u O U D J h V l W N u r u X ",
"Y e U j Z ` y t  ...a a e +.@.j t #.y y $.D a e e a %.K I $.t y  .B +.a a a &.W Z M t y ` *.a =.",
": b j O O -.y I N d e +.+.e V O O #.t m y d r +.a e K Z O $.Z m t I a a +.r W Z O M t I y N e =.",
";.G >.,.'.#.K '.'. .Z Q u G W '.'.).V !.!. .y Q B M R ~.'.F V !.!.` ~.) u j W !.~. .V '.!.` Z 3 ",
"> S M K K c G j j l >.{.].^.W R j ^.M K K F R &.f /.-.R j S W j R #.-.i f /.G R j F M K j  .W o ",
"! E M m O s y O y t a a a b R m I #.t I t I r a a (.j I O ` Z O Z N e a a J M I O W y O Z V r _.",
"! a m !.O -.N Z G k e +.a +.d '.I #.y I R H +.a e a :.'.I ` I Z M z <.a e +.:.p O M t Z W z +.<.",
"[.J k %.` $.M p i r Q }.@.|.1.f ` c j V i J D d X 2.|.:.` F p V 3.4.D d 5.|.|.6.W $.V 7.i b w X ",
"3.,.E +.|.^.N e a z y &.%.p |.a J L y r e 8.~.9.f '.|.=.J 0.p r +.u '.%.&.!.(.+.E a.j e +.Q '.h ",
"b.:.9.+.a A D e +.V h z 8.9.c.+.e O B a +.y 8.z 8.&.@.e r 5.B +.a d.z z h %.@.a +.].*.a a m i *.",
"b.f %.a e @.w e a p h z 8.o e.a e m Q a a f.h 8.z 9.n a a @.Q e a U z u h &.d a +.:.D +.a I h *.",
"g.h.1.a b c A a e &.d h o R 1.e J i.j.+.a f n 8.h K w a r $.y a a o }.h o ~.w e e -.y e +.B d B ",
"d.Q (.8.p c -.d.*.e 9.d.P *.(.z !.L G m H b ( U U *.E z !.L W O B r i m n - J k.~.c G I *.b 6 @.",
"% e A W Z -.N y  ...a a +.+.@.W Z #.y N  .3 a +.<.a f W Z ` Z N #.H a a +.a &.G I M t y  .Q a l.",
"m.r W O O x y I t n.+.a a r V O I l Z t t A e +.a r p Z m ` Z m t O a r <.b K I O M t O y N a =.",
"b.M K '.'.#.j '.'.#.o.*.8.R R !.!.c V p '.$.t B z j M !.!.F V p ~.$.p.*.h K W !.~.#.p '.!.-.T D ",
"_ /.` M M q.$.M M F R e.@.q.$.M M r.-.M G c G s.@.c ` W t.L -.W M F $.].X F $.M M c -.u.M l M :.",
": 2.-.m m -.t O y v e <.+.J G O O  .t m I ~.e a a E W Z O ` y m Z !.+.e a J -.I m R t O I R a =.",
"& a m N O ` N I R w a a +.a A y I #.y I j H a <.a a %.y O ` t I W v.e e e +.%.!.m M Z Z j z +.=.",
"[.E w :.G #.W p &.e H }.5.E 1.c.-.S j V 9.b [ }.5.w.1.c.-.l V x.f E q n 5.2.2.c.W ` j '.6.b q X ",
"y.'.(.+.(.^.~.e +.z z.o f p (.a (.L '.e a z !.i &.'.|.<.(./.p r a *.V i &.~.|.+.J c j b e H !.8.",
"/ %.( a +.d q +.a V 8.8.8.9.:.a a A.u e +.t h z 8.f # a a n.u a a n h 8.8.f X a +.c.*.+.e U o *.",
"1 f 6.+.a @.w +.a B.8.8.8.h X a +.m Q e a t z z z 9.n +.r @.Q a a m 8.8.h 9.A a a :.q e a Z 8.*.",
"6 !.1.a b F A a a &.A z h K w a r #.d e a %.d 8.8.p q a e x Z a +.i n z z !.q e +.C.t +.a z d H ",
"p.B |.*.~.c #.D.D r :.Z y E.E *.~.L -.A D Y f t t B E H '.L M d D r 9.t p.z J B y /.-.n Q b &.n ",
"! a A R I ` y y F...a a +.a X V Z G.t t  .q a +.e a 6.R I $.Z t  .*.+.a m.a &.M I M t t  .H a l.",
"m.b W O O -.y O N 5.a a +.a K O O #.t I t @.e a +.e H.I O $.t I Z I.a a a r K Z O M Z O t y a =.",
"1 V W '.'.#.K '.'.l n H B K G ~.'.c K ~.'.l d.D J.p G '.'.l p '.'.#.m H B !.M '.'. .V '.'.` I q ",
"K.L.#.` -.^. .` s S $.@.n L.#.` ` M.$.-.` S  .5.n q.#.-.-.^.$.G ` c F X n S l ` -.q. .` -.c  .e.",
"m.|.M O O -.N m t N r a a (.W O I #.t O I y r a a (.M O O ` t O Z ~.e +.a (.` I O M t m Z j r =.",
"& a O y O -.y O R w +.a a a d Z O #.y O R H +.a e +.c.N U N.I O W - <.e +.a :.N Z R y I 7.8.+.<.",
"O.(.q d M  .j p P.J D X :.E k 5.G a.K h.e.(.D X :.Q...A R.l H.V # E D e.:.2...5.K  .K p [.E q S.",
"{.V E a |.T.!.r +.J.!.o &.j (.a (.^.!.e a H V o i K E a J q.j r +.B V o 9.!.(.e J L W e a D K u ",
"U.:.o e a n.Q a +.p h 8.8.f :.a +.m B e +.N o 8.h f [.e e A u a a U 8.z z :.@.+.e :.*.+.a U o *.",
"U.f %.+.a @.w a e V 8.8.8.h c.e a m Q +.a t 8.8.h 9.U +.+.g D a a U h 8.8.9.d a +.:.D a +.I h *.",
"6 '.k a r V.5.a a %.A 8.o V q a r $.n +.a 6.d z 8.B.D a e G Z a +.&.d z h z.3 e r R Z +.a | n *.",
"z.*.b w '.c #.5.2.r %.p '.u r W.'.L.$.g ..e %.p p z r Q '.X.W # ..r f !.p h r 1.N S -.d ..b 9.t ",
"! a A W t ` y y #.|.+.+.+.+.e.R T #.Z ~.$.Q a <.e a &.R t $.Z N l *.+.e a r 9.-.t W y y  .Q +.=.",
"! r R O O ` N O ~.5.e a a a V I m l y I y 5.a a +.e p I O ` t I t n a e +.e V I m M t O y t a =.",
") h.R ~.~.#.V '.N l @.w Q K M N '.c p '.~.l ' k q B.W ~.~.F p '.'.#.d w D ~.W '.~.$.p ~.~.$.d k ",
"Y.^.` W M Z.` M M V.#.c.5.^.-.W G `.-.M M F F c.5.^.-.W M L -.M M #./.].5.L ` M M c -.M M #./.%.",
"!  +.+++++@+#+$+%+&+*+, =+-+;+$+$+>+,+'+)+!+~+, =+{+]+++++^+/+(+/+_+:+<+4 [+]+(+++.+,+++)+}+|+1+",
"2+3+4+5+6+7+8+9+0+a+b+3+c+d+e+f+g+h+i+4+j+k+3+c+3+3+l+m+n+o+p+q+0+r+3+3+3+s+t+u+g+v+i+g+w+x+s+y+",
"z+E A+B+C+D+V W @.E+q %.o J w F+G+/.p M H+E k i 9.E I+m W F '.R 5.|.k &.9.(.J+K+L+M+p N+d O+P+h ",
"Q+R+S+T+U+V+W+X+Y+Z+R+`+ @.@+@@@U+L W+#@@@$@!.%@ @R+&@Y+*@=@-@E+;@>@,@'@)@!@+@Y+*@q.R E+Y+~@W+o ",
"{@]@b.e e n Q a e x.o 8.h &.%.e a ^@u e a y o 8.8.%.@.e e d z a a n o 8.8.:.P.e a /@B a a n o B "};
