/* XPM */
static char * flour48_xpm[] = {
"48 48 134 2",
"  	c #FFFFFF",
". 	c #FFFFFD",
"+ 	c #FFFADD",
"@ 	c #FFFADA",
"# 	c #FFFEFF",
"$ 	c #F7F3D0",
"% 	c #F7F4D1",
"& 	c #F7F2D2",
"* 	c #FEFBDC",
"= 	c #FEFFFD",
"- 	c #FCFBDC",
"; 	c #FFFADC",
"> 	c #F8F3D3",
", 	c #F6F1D3",
"' 	c #F7F2D4",
") 	c #FBF6D6",
"! 	c #FEF9DB",
"~ 	c #FEF9D9",
"{ 	c #FDF8D8",
"] 	c #FCF7D7",
"^ 	c #F6F1D1",
"/ 	c #F8F4D1",
"( 	c #FEFFFF",
"_ 	c #FDFEFF",
": 	c #FFF9DF",
"< 	c #FEFEFE",
"[ 	c #FDFFFC",
"} 	c #FCF9F2",
"| 	c #EDB151",
"1 	c #EDB14F",
"2 	c #FFFDF6",
"3 	c #FFFADE",
"4 	c #ECB24F",
"5 	c #ECB050",
"6 	c #F1AF4E",
"7 	c #FFF9DB",
"8 	c #DBAF64",
"9 	c #FFFBFF",
"0 	c #FFFFEF",
"a 	c #DAB567",
"b 	c #F1B052",
"c 	c #F5D8B6",
"d 	c #FFFDFA",
"e 	c #F1B249",
"f 	c #E3AD57",
"g 	c #FBFFFF",
"h 	c #DDB34F",
"i 	c #ECB65E",
"j 	c #FEFEFF",
"k 	c #E8B34D",
"l 	c #EDAF58",
"m 	c #E2C079",
"n 	c #FEFCFF",
"o 	c #FAFFF9",
"p 	c #FFF8EA",
"q 	c #ECAC52",
"r 	c #EFB053",
"s 	c #FEFFFB",
"t 	c #E8B559",
"u 	c #D9AA5A",
"v 	c #F5B055",
"w 	c #FFFCFB",
"x 	c #FCFDFF",
"y 	c #ECB149",
"z 	c #FFDEB1",
"A 	c #FFFCFF",
"B 	c #FBFAF6",
"C 	c #EEB043",
"D 	c #E0B25A",
"E 	c #FFFDFE",
"F 	c #DFB569",
"G 	c #EAB54B",
"H 	c #FFFBFB",
"I 	c #F3AF4C",
"J 	c #EEC78E",
"K 	c #FCFBFF",
"L 	c #FCFEF3",
"M 	c #EDAF48",
"N 	c #EAB34E",
"O 	c #DFB257",
"P 	c #FFFFF7",
"Q 	c #DCC17A",
"R 	c #F8B660",
"S 	c #FFFBF5",
"T 	c #EAB34C",
"U 	c #DFB060",
"V 	c #F7FFF6",
"W 	c #F4FFFF",
"X 	c #FFFDEA",
"Y 	c #ECB34C",
"Z 	c #FEFEFC",
"` 	c #EFB353",
" .	c #ECB153",
"..	c #FDFDFD",
"+.	c #7D5F54",
"@.	c #83604C",
"#.	c #81614C",
"$.	c #8A6129",
"%.	c #EFB051",
"&.	c #FDFDFB",
"*.	c #FEFDF9",
"=.	c #EDB055",
"-.	c #EAB54D",
";.	c #EFAE52",
">.	c #EEAF52",
",.	c #EEB34D",
"'.	c #EFB14E",
").	c #FFFFFB",
"!.	c #FCFEFB",
"~.	c #80614C",
"{.	c #7D6149",
"].	c #7E6055",
"^.	c #FCFBF9",
"/.	c #EFB04F",
"(.	c #FAFFFF",
"_.	c #FEFADD",
":.	c #FCFAE1",
"<.	c #FDFADB",
"[.	c #F7F3DA",
"}.	c #FCFAE3",
"|.	c #FEFADF",
"1.	c #FEFFFA",
"2.	c #F5F4D6",
"3.	c #FFFCDE",
"4.	c #FFFBDE",
"5.	c #FDF9DC",
"6.	c #F1F0D4",
"7.	c #F9F4D4",
"8.	c #F5F0D0",
"9.	c #FCF7DA",
"0.	c #FDF8DA",
"a.	c #F9F4D7",
"b.	c #F8F2D2",
"c.	c #FFFFF8",
"                                                                                                ",
"                                                                                                ",
"                                                                                                ",
"                                                                                                ",
"                                                                                                ",
"                  . . + + + + + + + + + + + + + + + + + + + + + + + + + @                       ",
"                  # $ + + + + + + + + + + + + + + + + + + + + + + + + + + %                     ",
"                  . & + + + + + + + + + + + + + + + + + + + + + + + + + * &                     ",
"                    = - ; + + + + + + + + + + + + + + + + + + + + + + ; @                       ",
"                      . $ & & & & & & & & & & & & & & & & & & & & & & $                         ",
"                      . & & > , ' & & > ) ! ~ ; ; @ { ] > ^ ^ > ' / $ $                         ",
"                      ( + + + + + + + + + + + + + + + + + + + + + + + +                         ",
"                      = + + + + + + + + + + + + + + + + + + + + + + + +                         ",
"                      _ + + + + + + + + + + + + + + + + + + + + + + + : <                       ",
"                      [ + + + + + + + + + + + + + + + + + + + + + + + +                         ",
"                      } | | 1 | | 1 1 | | 1 | | 1 1 | 1 1 | | 1 1 | 1 | 2                       ",
"                      3 4 | | | | | | | | | | 5 6 | | | | | | | | | | | 7                       ",
"                      8 | | | | | | | | | | | 9 0 | | | | | | | | | | | a                       ",
"                      b | | | | | | | | | | | c d | | | | | | | | | | | e                       ",
"                    . | | | | | | | | | | f g h i [ j | | | | | | | | | k                       ",
"                    ( | | | | | | | | | | l m n o p q | | | | | | | | | r                       ",
"                    s 1 | | | | | | | | | t 9 u v w x | | | | | | | | | 1                       ",
"                    ( | | | | | | | | | | y z A x B C | | | | | | | | | 4                       ",
"                    _ | | | | | | | | | | D E F G A H | | | | | | | | | 1                       ",
"                      | | | | | | | | | | I J # K L M | | | | | | | | | N                       ",
"                    = | | | | | | | | | | O P Q R A S | | | | | | | | | T                       ",
"                      | | | | | | | | | | | U V W X Y | | | | | | | | | N Z                     ",
"                    ( | | | | | | | | | | | | ` 1 | | | | | | | | | | |  ...                    ",
"                    . | | | | | | | | | | +.@.@.#.#.@.$.| | | | | | | | %.&.                    ",
"                    *.| | | | | | | | =.1 -.;.;.>.>.;.,.1 '.| | | | | | 1 ).                    ",
"                    !.| | | | | | | | ~.{.{.{.{.{.{.{.{.{.].| | | | | | %.Z                     ",
"                    ^.| | | | | | | | 1 | | | | | | | | | | | | | | | | /.<                     ",
"                    (._._._._._._._._._._._._._._._._._._._._._._._._._.:.<                     ",
"                    = + + + + + + + + + + + + + + + + + + + + + + + + + +                       ",
"                      + + + + + + + + + + + + + + + + + + + + + + + + + +                       ",
"                    = ; + + + + + + + + + + + + + + + + + + + + + + + + +                       ",
"                      & + + + + + + + + + + + + + + + + + + + + + + + + <.                      ",
"                      [.^ + + + + + + + + + + + + + + + + + + + + + + + }.                      ",
"                      ( & > ~ : + + + + + + + + + + + + + + + + + + + |.                        ",
"                      1.& & & & ! + + + + + + + + + + + + + + + + + + ;                         ",
"                      . 2.& & & & & & 3.+ + + ; ; + + + + + + ; + 4.5.6.                        ",
"                        ( & & & & & & & ' > & 7.8., 9.0.0.a.' > & & '                           ",
"                        ( 2 b.& & $ $ & & $ & & $ $ & $ $ & & $ $ & c.                          ",
"                          #                                                                     ",
"                                                                                                ",
"                                                                                                ",
"                                                                                                ",
"                                                                                                "};
