/* XPM */
static char * flour2_xpm[] = {
"48 48 97 2",
"  	c #FFFFFF",
". 	c #F7F3D0",
"+ 	c #FFFADD",
"@ 	c #F7F4D1",
"# 	c #F7F2D2",
"$ 	c #FEFBDC",
"% 	c #FEFFFD",
"& 	c #FCFBDC",
"* 	c #FFFADA",
"= 	c #FFFFFD",
"- 	c #F8F3D3",
"; 	c #F6F1D3",
"> 	c #FEF9DB",
", 	c #FEF9D9",
"' 	c #FFFADC",
") 	c #FDF8D8",
"! 	c #F6F1D1",
"~ 	c #F7F2D4",
"{ 	c #F8F4D1",
"] 	c #FEFFFF",
"^ 	c #FDFEFF",
"/ 	c #FEFEFE",
"( 	c #FDFFFC",
"_ 	c #FCF9F2",
": 	c #EDB151",
"< 	c #EDB14F",
"[ 	c #FFFDF6",
"} 	c #DBAF64",
"| 	c #FFFFEF",
"1 	c #DAB567",
"2 	c #F1B052",
"3 	c #FFFDFA",
"4 	c #F1B249",
"5 	c #E3AD57",
"6 	c #FBFFFF",
"7 	c #ECB65E",
"8 	c #FEFEFF",
"9 	c #E8B34D",
"0 	c #FEFFFB",
"a 	c #E8B559",
"b 	c #FFFBFF",
"c 	c #F5B055",
"d 	c #FFFCFB",
"e 	c #FCFDFF",
"f 	c #ECB149",
"g 	c #FFDEB1",
"h 	c #FBFAF6",
"i 	c #EEB043",
"j 	c #ECB24F",
"k 	c #F3AF4C",
"l 	c #EEC78E",
"m 	c #FCFBFF",
"n 	c #FCFEF3",
"o 	c #EDAF48",
"p 	c #EAB34E",
"q 	c #DFB257",
"r 	c #FFFFF7",
"s 	c #F8B660",
"t 	c #FFFCFF",
"u 	c #FFFBF5",
"v 	c #EAB34C",
"w 	c #DFB060",
"x 	c #F4FFFF",
"y 	c #FFFDEA",
"z 	c #ECB34C",
"A 	c #FEFEFC",
"B 	c #7D5F54",
"C 	c #83604C",
"D 	c #000000",
"E 	c #EFB051",
"F 	c #FDFDFB",
"G 	c #FEFDF9",
"H 	c #EDB055",
"I 	c #EAB54D",
"J 	c #EFAE52",
"K 	c #EEAF52",
"L 	c #EFB14E",
"M 	c #FFFFFB",
"N 	c #FCFEFB",
"O 	c #80614C",
"P 	c #7D6149",
"Q 	c #7E6055",
"R 	c #FAFFFF",
"S 	c #FEFADD",
"T 	c #FCFAE1",
"U 	c #FDFADB",
"V 	c #F7F3DA",
"W 	c #FCFAE3",
"X 	c #FEFFFA",
"Y 	c #FFFCDE",
"Z 	c #FFFBDE",
"` 	c #FDF9DC",
" .	c #F5F0D0",
"..	c #FCF7DA",
"+.	c #FDF8DA",
"@.	c #F9F4D7",
"#.	c #FFFEFF",
"                                                                                                ",
"                                                                                                ",
"                                                                                                ",
"                                                                                                ",
"                                                                                                ",
"                                                                                                ",
"                                                                                                ",
"                                                                                                ",
"                                                                                                ",
"                                                                                                ",
"                          D D D D D D D D D D D D D D D D D D D D D                             ",
"                          D + + + + + + + + + + + + + + + + + + $ D                             ",
"                            D + + + + + + + + + + + + + + + + + D                               ",
"                              D - ; # # - > , ' * ) - ! ! ~ { D                                 ",
"                              D + + + + + + + + + + + + + + + D                                 ",
"                              D + + + + + + + + + + + + + + + D                                 ",
"                              D + + + + + + + + + + + + + + + D                                 ",
"                              D < : < < : < : < < : < : : < : D                                 ",
"                            D : : : : : : : : | : : : : : : : : D                               ",
"                            D : : : : : : : : 3 : : : : : : : : D                               ",
"                          D : : : : : : : 5 6 7 ( 8 : : : : : : : D                             ",
"                          D : : : : : : : a b c d e : : : : : : : D                             ",
"                          D : : : : : : : f g e h i : : : : : : : D                             ",
"                          D : : : : : : : k l m n o : : : : : : : D                             ",
"                          D : : : : : : : q r s t u : : : : : : : D                             ",
"                          D : : : : : : : : w x y z : : : : : : : D                             ",
"                          D : : : : : : : B C P P C : : : : : : : D                             ",
"                          D : : : : : : H I J K K J < L : : : : : D                             ",
"                          D : : : : : : O P P P P P P Q : : : : : D                             ",
"                          D S S S S S S S S S S S S S S S S S S T D                             ",
"                          D + + + + + + + + + + + + + + + + + + + D                             ",
"                          D + + + + + + + + + + + + + + + + + + + D                             ",
"                          D D + + + + + + + + + + + + + + + + + D D                             ",
"                              D + + + + + + + + + + + + + + + D                                 ",
"                              D # # + + + + + + + + + + + + + D                                 ",
"                              D # # # # Y + + ' + + + + + + Z D                                 ",
"                              D D D D D D D D D D D D D D D D D                                 ",
"                                                                                                ",
"                                                                                                ",
"                                                                                                ",
"                                                                                                ",
"                                                                                                ",
"                                                                                                ",
"                                                                                                ",
"                                                                                                ",
"                                                                                                ",
"                                                                                                ",
"                                                                                                "};
