/* XPM */
static char *b710e4b00a534de9fe0746fee1085f00Qm05VItQDLLZfcZK[] = {
/* columns rows colors chars-per-pixel */
"48 48 5 1 ",
"  c #502B10",
". c #592F11",
"X c #5F3313",
"o c #643514",
"O c #673714",
/* pixels */
"                                                ",
"                                                ",
"       XX      oo      XX      oo      XX       ",
"      XXXX    oooo    XXXX    oooo    XXXX      ",
"      XXXX.  .ooooX  .XXXX.  .oooo.  .XXXX      ",
"     .XXXX  ..oooo  ..XXXX  ..oooo  ..XXXX      ",
"   oo..XX  XX..oo  oo..XX  oX..oo  oo..XX  XX   ",
"  oooo... oXXX..  oooo... XXXX..  oooo... XXXX  ",
" .ooooX...XXXX.   oooo....XXXX.   oooo....XXXX. ",
" .oooo ...XXXX    oooo ...XXXX    oooo ...XXXX. ",
" ..oo  oo..XX  XX  oo  oo..XX  XX  oo  oo..XX.. ",
"  ..  oooo..  XXXX .. oooo..  XXXX .. oooo....  ",
"     .ooooXX..XXXX....oooo....XXXX....oooo...   ",
"    ..oooo.X..XXXX ...oooo....XXXX ...oooo..    ",
"   oo..oo..oo..XX  oo..oo..oo..XX  oo..oo..oo   ",
"  oooo....oooo... oooo....oooo... oooo....oooo  ",
" .oooo....oooo ...oooo....oooo ...oooo....oooo  ",
" .oooo ...oooo  ..oooo ...oooo  ..oooo ...oooo  ",
" ..oo  XX..oo  oo..oo  XX..oo  oo..oo  XX..oo   ",
"  ..  XXXX..  oooo..  XXXX..  oooo..  XXXX..    ",
"     .XXXX.  .ooooX  .XXXX.  .oooo.  .XXXX.     ",
"    ..XXXX  ..oooo  ..XXXX  ..oooo  ..XXXX  .   ",
"   oo..XX  XX..oo  oo..XX  oX..oo  oo..XX  XX   ",
"  oooo... XXXX..  oooo... XXXX..  oooo... XXXX  ",
" .oooo....XXXX.   oooo....XXXX.   oooo....XXXX. ",
" .oooo ...XXXX    oooo ...XXXX    oooo ...XXXX. ",
" ..oo  oo..XX  XX  oo  oo..XX  XX  oo  oo..XX.. ",
"  ..  oooo..  XXXX .. oooo..  XXXX .. oooo....  ",
"     .oooo....XXXX....oooo....XXXX....oooo...   ",
"    ..oooo....XXXX ...oooo....XXXX ...oooo..    ",
"   oo..oo..oo..XX  oo..oo..oo..XX  oo..oo..oo   ",
"  oooo....oooo... oooo....oooo... oooo....oooo  ",
" .oooo....oooo ...oooo....oooo ...oooo....oooo  ",
" .oooo ...oooo  ..oooo ...oooo  ..oooo ...oooo  ",
" ..oo  XX..oo  oo..oo  XX..oo  oo..oo  XX..oo   ",
"  ..  XXXX..  oooo..  XXXX..  oooo..  XXXX..    ",
"     .XXXX.  .oooo.  .XXXX.  .ooooX  .XXXX.     ",
"    ..XXXX  ..oooo  ..XXXX  ..oooo  ..XXXX  .   ",
"   oo..XX  oX..oo  oo..XX  XX..oo  oo..XX  XX   ",
"  oooo... XXXX..  oooo... XXXX..  oooo... XXXX  ",
" .oooo....XXXX.   oooo....XXXX.   oooo....XXXX. ",
" .oooo ...XXXX    oooo ...XXXX    oooo ...XXXX. ",
" ..oo  oo..XX  XX  oo  oo..XX  XX  oo  oo..XX.. ",
"  ..  oooo..  XXXX .. oooo..  XXXX .. oooo....  ",
"     .oooo....XXXX....oooo....XXXX....oooo..    ",
"      oooo  ..XXXX  ..oooo  ..XXXX  ..oooo      ",
"       oo    ..XX    ..oo    ..XX    ..oo       ",
"                                                "
};
