/* XPM */
static char * Hole_xpm[] = {
"48 48 49 1",
" 	c None",
".	c #4D4C40",
"+	c #4D4B3F",
"@	c #4F4D41",
"#	c #4D4B40",
"$	c #4E4C40",
"%	c #4E4D41",
"&	c #4C4A3E",
"*	c #4E4C41",
"=	c #4C493F",
"-	c #4A483F",
";	c #49473F",
">	c #49463E",
",	c #48463E",
"'	c #48453E",
")	c #49463F",
"!	c #4A473F",
"~	c #4B493F",
"{	c #49473E",
"]	c #45423D",
"^	c #43403C",
"/	c #423F3C",
"(	c #44413D",
"_	c #4C4A40",
":	c #44413C",
"<	c #47453E",
"[	c #45433D",
"}	c #4F4C41",
"|	c #47453D",
"1	c #46433D",
"2	c #413E3B",
"3	c #403D3A",
"4	c #3F3C39",
"5	c #3D3B38",
"6	c #3C3936",
"7	c #3B3835",
"8	c #3A3734",
"9	c #3A3834",
"0	c #3D3A37",
"a	c #3E3B39",
"b	c #423F3B",
"c	c #3E3B38",
"d	c #393633",
"e	c #413E3A",
"f	c #413F3B",
"g	c #3A3733",
"h	c #3A3633",
"i	c #393734",
"j	c #393733",
"                                                ",
"                                                ",
"                                                ",
"                                                ",
"                                                ",
"                                                ",
"                                                ",
"                                                ",
"                                                ",
"                                                ",
"                                                ",
"                                                ",
"                                                ",
"                                                ",
"                                                ",
"                .+@@@@@@@@@@@.+#                ",
"            +$@@@@@@@@@@@@@@@@@@@%+             ",
"          $@@@@@@@@@@@@@@@@@@@@@@@@@$&          ",
"        +@@@@@@@@@@@@@@@@@@@@@@@@@@@@@$         ",
"       @@@@@@@@@@@@@@@@@@@@@@@@@@@@@@@@@&       ",
"      @@@@@@@@@@@@@@@@@@@@@@@@@@@@@@@@@@@       ",
"     $@@@@@@@@@@*#=-;>,''>)!~#$@@@@@@@@@@@      ",
"     @@@@@@@@#{]^/////////////^(,_*@@@@@@@$     ",
"    #@@@@@#,(/////////////////////:<_@@@@@$     ",
"    *@@@#<///////////////////////////[_@@@}     ",
"    +@@-^//////////////////////////////'@@$     ",
"     @'/////////////////////////////////[*$     ",
"     |///////////////////////////////////1      ",
"      /////////23456788888960a32/////////       ",
"       b////2c78dddddddddddddddd703/////        ",
"        eb47ddddddddddddddddddddddd8c2f         ",
"          gdddddddddddddddddddddddddd           ",
"             hdddddddddddddddddddg8             ",
"                d8dighddddgidgj                 ",
"                                                ",
"                                                ",
"                                                ",
"                                                ",
"                                                ",
"                                                ",
"                                                ",
"                                                ",
"                                                ",
"                                                ",
"                                                ",
"                                                ",
"                                                ",
"                                                "};
