/* XPM */
static char * kol(1)_xpm[] = {
"48 48 83 1",
" 	c None",
".	c #FED84E",
"+	c #FED44D",
"@	c #FFD74D",
"#	c #FED64D",
"$	c #FFD54D",
"%	c #FED54D",
"&	c #FFD54C",
"*	c #FED54C",
"=	c #FED54B",
"-	c #FED44C",
";	c #FED44B",
">	c #FFD54B",
",	c #FED54A",
"'	c #E5C647",
")	c #D3B642",
"!	c #F8D14A",
"~	c #FAD34A",
"{	c #D4B642",
"]	c #E0C046",
"^	c #C1A43B",
"/	c #000000",
"(	c #766D27",
"_	c #F9D149",
":	c #FFD54A",
"<	c #FDD64C",
"[	c #776A24",
"}	c #B79B36",
"|	c #FFD64C",
"1	c #5F581F",
"2	c #DFC045",
"3	c #E0BF44",
"4	c #4C471A",
"5	c #938631",
"6	c #030200",
"7	c #EDC948",
"8	c #FFD44B",
"9	c #EECA48",
"0	c #0A0902",
"a	c #908432",
"b	c #EFCA49",
"c	c #978931",
"d	c #857F2F",
"e	c #D1B540",
"f	c #D2B43F",
"g	c #857F30",
"h	c #978932",
"i	c #EEC948",
"j	c #FDD048",
"k	c #FDCB46",
"l	c #FDCB47",
"m	c #FCCA46",
"n	c #FDCA46",
"o	c #FCCB46",
"p	c #F29237",
"q	c #F29336",
"r	c #F39336",
"s	c #FCCC47",
"t	c #FFD44A",
"u	c #F9B941",
"v	c #F29337",
"w	c #F39337",
"x	c #FABD43",
"y	c #FBC846",
"z	c #FDD149",
"A	c #F39237",
"B	c #FED249",
"C	c #FFD64B",
"D	c #F6AC3E",
"E	c #F7B03E",
"F	c #FFD44C",
"G	c #FED64A",
"H	c #F39637",
"I	c #F39236",
"J	c #F49938",
"K	c #FDD148",
"L	c #FED44A",
"M	c #FBC244",
"N	c #F49837",
"O	c #F49A38",
"P	c #FCCD46",
"Q	c #FED64C",
"R	c #FDD44C",
"                                                ",
"                                                ",
"                                                ",
"                                                ",
"                                                ",
"                                                ",
"                       .++@                     ",
"                   ##$%%&&***#                  ",
"                 +%****&*****=**#               ",
"                %%&**********=**-%              ",
"               -******-*&**=;;**-*-             ",
"              **&&;=&*==>=====>===&*            ",
"             **>*=====**======>=;*=>*           ",
"            ***=========*=====;=====>%          ",
"           %*&*>>*==>========,==;====&*         ",
"           ****==*==>===========;===***         ",
"          +-*&==>===>===========;=;=*>&%        ",
"          -*=**==*==>===============>=>*        ",
"          **>*-==*=====>======>;====**=*        ",
"         -*&*=*=>=>>====>===,====>===>>>*       ",
"         -***=*=>=============>===>=*&>*%       ",
"         **=>=====')!========~{];>=====>*       ",
"         **=====>^//(_==:=;,<[//},=>=;>=*       ",
"        |&**>&*==1///2=====>3///4==>==>***      ",
"        --**-**;>5//67====8=90//a,==*==**-      ",
"        *&**==*==bcde;==;===,fghi==;===**-      ",
"        *>*===*>=====,>===,==;======>*=*&-      ",
"        -******=**====jklmnj=,==;=>=*==**-      ",
"        ;;==*========opqqqqrst8;;>=>>>>>*;      ",
"         -*=*=**==>>>uvwvwwwx,>====;==>&&       ",
"         &*==>;>>===,ywwwwwwyt>>;>==>=>&*       ",
"         ;&=>**====>>zAwwwwwB,==;===>>>&*       ",
"         -**=**>C=>=>,DwwwwE=,>===>>=>>>=       ",
"          F====>>=>G>>sHwIJKL,,=====>>>&        ",
"          *=====C==>=>,MNOP,,=========>>        ",
"           >=&*====>>===L,====>==*==&*>         ",
"           ****=====>===;===>,>=====&==         ",
"            *&*=====>=>===;>=:>>===>**          ",
"             **&==>==>========>==>>*&           ",
"              *&**&>=>=>>======**&>=            ",
"               Q>>*===>>>=====>*=&Q             ",
"                 *-*&&*&&*=*=>&**               ",
"                    -*;=;>=;*R                  ",
"                                                ",
"                                                ",
"                                                ",
"                                                ",
"                                                "};
