/* XPM */
static char *e5cfee79a1c34881f5aa1176b240b735zuBt9or7vtUZZ9mf[] = {
/* columns rows colors chars-per-pixel */
"30 32 7 1 ",
"  c None",
". c #1C1F0A",
"X c #2B251C",
"o c #3C3326",
"O c #52432E",
"+ c #6E5738",
"@ c #8A6B3F",
/* pixels */
"                              ",
"          @@@@@@@@@           ",
"        @@@@@@@@@@@@          ",
"       +@@@@@@@@@@@@@         ",
"      +++@@@@@@@@@@@@@+       ",
"     @@+++@@@@@@@@@@@@++O     ",
"    @@@@@@@@@@@@@@@@@++Ooo    ",
"    @@@@@@@@@@@@@@@@@++oooo   ",
"   @@@@@@@@@@@@@@@@@+++oooXX  ",
"  @@@@@@@@@@@@@@@@@+OOOooXXXX ",
"  @@@@@@@@@@@@@@@+OOOOOoXXXXX ",
" @@@@@@@@@@@@@++OOOOOOoXXXXXXX",
" @@@@@@@@@@@@@@+OOOOOoXXXXXXXX",
"@@@@@@@@@@@@@@@OOOo..X.X.X.X..",
"@@@@@@@@@@@@@@+OoX............",
"@@@@@@@@@@@@+oooX.............",
"@@@@@@@@+OOooooo..............",
"@@@@@@@+OOoooooo..............",
"@@@@@@@OoooooooX..............",
"@@@@@@@ooooooooX..............",
"@@@@@@@Oooooooo...............",
"@@@@@@+OooooooX...............",
"@@@@@+++OooooX............... ",
"@@@++++OOooXX................ ",
" +++++++OOoXXX............... ",
"  +++++OOOoXXXX.............  ",
"   +++++OOOXXXX............   ",
"    +++OOOOoXXXX..........    ",
"     +++OOOOXXXX.........     ",
"       OOOOOXXXX.......       ",
"         OOOXXXXX...          ",
"                              "
};
