/* XPM */
static char * rock2_xpm[] = {
"48 48 223 2",
"  	c None",
". 	c #8A6B3F",
"+ 	c #785E3A",
"@ 	c #88693E",
"# 	c #8B6B3F",
"$ 	c #6D5638",
"% 	c #735B39",
"& 	c #81653D",
"* 	c #886A3E",
"= 	c #6F5838",
"- 	c #6E5738",
"; 	c #7F633C",
"> 	c #896A3F",
", 	c #85673E",
"' 	c #745B39",
") 	c #86683E",
"! 	c #7E623C",
"~ 	c #755C3A",
"{ 	c #6D5738",
"] 	c #8B6C3F",
"^ 	c #6A5437",
"/ 	c #745C3A",
"( 	c #795F3B",
"_ 	c #735A39",
": 	c #6C5537",
"< 	c #655035",
"[ 	c #54442F",
"} 	c #4A3D2B",
"| 	c #85683E",
"1 	c #80643C",
"2 	c #6F5738",
"3 	c #645034",
"4 	c #55452F",
"5 	c #463A29",
"6 	c #3E3527",
"7 	c #3C3326",
"8 	c #7D623C",
"9 	c #5D4B32",
"0 	c #463A2A",
"a 	c #3E3427",
"b 	c #3B3326",
"c 	c #896B3F",
"d 	c #7A603B",
"e 	c #5A4830",
"f 	c #3A3125",
"g 	c #372F23",
"h 	c #705838",
"i 	c #594730",
"j 	c #3D3426",
"k 	c #3A3124",
"l 	c #322A20",
"m 	c #2D261D",
"n 	c #2B251C",
"o 	c #795F3A",
"p 	c #675235",
"q 	c #604D33",
"r 	c #614E33",
"s 	c #614D33",
"t 	c #51422D",
"u 	c #393024",
"v 	c #332B20",
"w 	c #82653C",
"x 	c #775D39",
"y 	c #584730",
"z 	c #52432E",
"A 	c #53442E",
"B 	c #493C2A",
"C 	c #393124",
"D 	c #2C261C",
"E 	c #715938",
"F 	c #644F33",
"G 	c #5C4A31",
"H 	c #574630",
"I 	c #51422E",
"J 	c #483B2A",
"K 	c #312A20",
"L 	c #7D613C",
"M 	c #7B603B",
"N 	c #745B38",
"O 	c #6A5435",
"P 	c #5E4B32",
"Q 	c #50422E",
"R 	c #51432E",
"S 	c #3F3526",
"T 	c #332C21",
"U 	c #2C261D",
"V 	c #725A39",
"W 	c #6A5436",
"X 	c #594830",
"Y 	c #53432E",
"Z 	c #4B3E2B",
"` 	c #3E3426",
" .	c #695436",
"..	c #322B20",
"+.	c #795E3A",
"@.	c #433826",
"#.	c #3E3521",
"$.	c #3E3421",
"%.	c #393121",
"&.	c #312B1F",
"*.	c #272418",
"=.	c #272318",
"-.	c #2A241B",
";.	c #262316",
">.	c #282419",
",.	c #2A251B",
"'.	c #242214",
").	c #242215",
"!.	c #705837",
"~.	c #4F412D",
"{.	c #4E402C",
"].	c #3C3324",
"^.	c #2C2919",
"/.	c #1F200C",
"(.	c #1E200C",
"_.	c #272317",
":.	c #1F200F",
"<.	c #232213",
"[.	c #262317",
"}.	c #1F200E",
"|.	c #1C1F0A",
"1.	c #1C1F0B",
"2.	c #775E3A",
"3.	c #443929",
"4.	c #3B3124",
"5.	c #322B1E",
"6.	c #282515",
"7.	c #20210E",
"8.	c #1B1F0A",
"9.	c #1D1F0C",
"0.	c #1D1F0B",
"a.	c #755C38",
"b.	c #695334",
"c.	c #5C4A30",
"d.	c #50422D",
"e.	c #453929",
"f.	c #382F23",
"g.	c #2C271B",
"h.	c #222113",
"i.	c #1B1F09",
"j.	c #83663D",
"k.	c #81643C",
"l.	c #7C603A",
"m.	c #6C5536",
"n.	c #55452E",
"o.	c #403527",
"p.	c #3D3427",
"q.	c #2D281C",
"r.	c #232113",
"s.	c #604D32",
"t.	c #5F4C32",
"u.	c #59482F",
"v.	c #51412C",
"w.	c #4A3D2A",
"x.	c #423728",
"y.	c #383023",
"z.	c #262415",
"A.	c #84673E",
"B.	c #483C2A",
"C.	c #403627",
"D.	c #393125",
"E.	c #3A3225",
"F.	c #3B3226",
"G.	c #3D3326",
"H.	c #383022",
"I.	c #242412",
"J.	c #1B1E09",
"K.	c #7C613B",
"L.	c #665135",
"M.	c #4E402D",
"N.	c #352E21",
"O.	c #242312",
"P.	c #755B38",
"Q.	c #453A29",
"R.	c #362E23",
"S.	c #2C271C",
"T.	c #20210F",
"U.	c #6F5736",
"V.	c #473B2A",
"W.	c #342D22",
"X.	c #29241A",
"Y.	c #1C1F09",
"Z.	c #6D5635",
"`.	c #433828",
" +	c #342C21",
".+	c #715937",
"++	c #4D3F2C",
"@+	c #3F3527",
"#+	c #302B1D",
"$+	c #20200F",
"%+	c #886A3F",
"&+	c #3B3225",
"*+	c #362E22",
"=+	c #2A2618",
"-+	c #655034",
";+	c #54442E",
">+	c #232212",
",+	c #84673D",
"'+	c #685336",
")+	c #383024",
"!+	c #352D22",
"~+	c #87693E",
"{+	c #403628",
"]+	c #342D21",
"^+	c #715939",
"/+	c #202110",
"(+	c #372E22",
"_+	c #4F402D",
":+	c #403525",
"<+	c #453928",
"[+	c #332B21",
"}+	c #30291E",
"|+	c #2A251C",
"1+	c #342C20",
"2+	c #2A241C",
"3+	c #292419",
"4+	c #4D3F2B",
"5+	c #352D20",
"6+	c #4C3E2B",
"7+	c #352C20",
"8+	c #222112",
"9+	c #1D200C",
"0+	c #252215",
"                                                                                                ",
"                                    . . . . . . . . . . .                                       ",
"                                  . . . . . . . . . . . . . .                                   ",
"                            . . . . . . . . . . . . . . . . . .                                 ",
"                          + @ # . . . . . . . . . . . . . . . . .                               ",
"                        $ % & * . . . . . . . . . . . . . . . . . .                             ",
"                      = - = % ; > . . . . . . . . . . . . . . . . . , '                         ",
"                    ) ! ~ { $ ~ ; @ . . . . . . . . . . . . . . . ] ) ' - ^                     ",
"                  . . > ; / ' ' ( ) . . . . . . . . . . . . . . . * & _ : < [ }                 ",
"                . . . . @ | | , ) > . . . . . . . . . . . . . . . 1 % 2 3 4 5 6 7               ",
"                . . . . . . # # . . . . . . . . . . . . . . . . . 8 - $ 9 0 a b 7 7             ",
"                . . . . . . . . . . . . . . . . . . . . . . . c ) d = $ e a 7 7 7 f g           ",
"              . . . . . . . . . . . . . . . . . . . . . . . . ) + h - $ i j 7 7 k l m n         ",
"            . . . . . . . . . . . . . . . . . . . . . . # # , o p q r s t j 7 u v m n n n       ",
"          . . . . . . . . . . . . . . . . . . . . . . @ , w x p y z A z B 7 C v D n n n n       ",
"          . . . . . . . . . . . . . . . . . . . . . > ; E F G H A z z I J f K m n n n n n n     ",
"        . . . . . . . . . . . . . . . . . . @ ; L M N O P [ Q R z z t } S T U n n n n n n n     ",
"        . . . . . . . . . . . . . . . . . . ) ( V W X z Y z z z z I Z ` v D n n n n n n n n n   ",
"      . . . . . . . . . . . . . . . . . . . > ) d  .y I z z R R t } ` ..U n n n n n n n n n n   ",
"      . . . . . . . . . . . . . . . . . . . . . +.q 4 z I } @.#.$.%.&.*.=.-.;.>.-.;.>.,.;.'.).  ",
"    . . . . . . . . . . . . . . . . . . . . . ) !.A ~.{.B ].^./.(.'._.:.<.[.:.<.[.:.<.[.}.|.1.  ",
"    . . . . . . . . . . . . . . . . . . . . | 2.3 ~.3.4.5.6.7.|.8.9.}.0.(.}.0.(.}.0.(.}.0.|.|.  ",
"    . . . . . . . . . . . . . ] ] ] ] > 1 a.b.c.d.e.f.g.h.1.i.|.|.|.|.|.|.|.|.|.|.|.|.|.|.|.|.  ",
"    . . . . . . . . . . . > ) j.w w k.l.m.n.o.j p.C q.r.0.|.|.|.|.|.|.|.|.|.|.|.|.|.|.|.|.|.|.  ",
"    . . . . . . . . . . . ) + W s.t.u.v.w.x.7 b 7 y.z.0.|.|.|.|.|.|.|.|.|.|.|.|.|.|.|.|.|.|.|.  ",
"    . . . . . . . . . . A.o p X ~.B.C.D.E.F.7 7 G.H.I.J.|.|.|.|.|.|.|.|.|.|.|.|.|.|.|.|.|.|.|.  ",
"    . . . . . . . . . c K.L.4 M.Z C.7 7 7 7 7 7 F.N.O.i.|.|.|.|.|.|.|.|.|.|.|.|.|.|.|.|.|.|.|.  ",
"    . . . . . . . . . > P.4 Q.C.C.j 7 7 7 7 7 7 R.S.T.i.|.|.|.|.|.|.|.|.|.|.|.|.|.|.|.|.|.|.|.  ",
"    . . . . . . . . . > U.V.j F.7 7 7 7 7 7 7 7 W.X.:.Y.|.|.|.|.|.|.|.|.|.|.|.|.|.|.|.|.|.|.|.  ",
"    . . . . . . . . . > Z.`.7 7 7 7 7 7 7 7 7 7  +_.}.|.|.|.|.|.|.|.|.|.|.|.|.|.|.|.|.|.|.|.|.  ",
"    . . . . . . . . . > .+++@+7 7 7 7 7 7 7 7 b #+$+1.|.|.|.|.|.|.|.|.|.|.|.|.|.|.|.|.|.|.|.|.  ",
"    . . . . . . . # %+; O ~.C.F.7 7 7 7 7 7 &+*+=+|.|.|.|.|.|.|.|.|.|.|.|.|.|.|.|.|.|.|.|.|.|.  ",
"    . . . . . . . * & % 3 4 5 a 7 7 7 7 7 &+g S.r.|.|.|.|.|.|.|.|.|.|.|.|.|.|.|.|.|.|.|.|.|.|.  ",
"    . . . . . . > ; % = : -+;+Q.7 7 7 7 b *+S.>+9.|.|.|.|.|.|.|.|.|.|.|.|.|.|.|.|.|.|.|.|.|.    ",
"    . . # . ,+8 L ~ - - '+t.4 J 7 7 )+!+ +q.r.9.Y.|.|.|.|.|.|.|.|.|.|.|.|.|.|.|.|.|.|.|.|.      ",
"    . ~+| , M = - - - - 3 y A } {+G.]+D n [.:.0.|.|.|.|.|.|.|.|.|.|.|.|.|.|.|.|.|.|.|.|.|.|.    ",
"      + ' ' ^+- - - - - : < H d.Z C. +n n -._.}.|.|.|.|.|.|.|.|.|.|.|.|.|.|.|.|.|.|.|.|.|.      ",
"        $ $ - - - - - - '+t.4 z ~.C.T n n n ,.;./+|.|.|.|.|.|.|.|.|.|.|.|.|.|.|.|.|.|.|.|.      ",
"          - - - - - - - 3 y A z ~.3.(+n n n n n '.|.|.|.|.|.|.|.|.|.|.|.|.|.|.|.|.|.|.|.        ",
"            - - - - - - : < H z R _+:+U n n n n ).0.|.|.|.|.|.|.|.|.|.|.|.|.|.|.|.|.|.          ",
"              - - - - - '+t.4 z z z <+[+m n n n >.<.(.|.|.|.|.|.|.|.|.|.|.|.|.|.|.|.            ",
"                - - - - 3 y A z z z } ` }+|+n n n >.:.Y.|.|.|.|.|.|.|.|.|.|.|.|.|.              ",
"                  - - - : < H R z z I B 1+2+n n n 3+:.Y.|.|.|.|.|.|.|.|.|.|.|.|.                ",
"                      - L.t.4 z z z A 4+5+-.n n n 3+}.i.|.|.|.|.|.|.|.|.|.|.                    ",
"                          Y z z z z Y 6+7+2+n n n X.8+9+|.|.|.|.|.|.|.|.                        ",
"                              z z z Y 6+7+2+n n n n X.<.|.|.|.|.                                ",
"                                  z Y 6+7+2+n n n n n 0+1.|.|.                                  ",
"                                                                                                "};
