/* XPM */
static char * rock_xpm[] = {
"48 48 7 1",
" 	c None",
".	c #8A6B3F",
"+	c #6E5738",
"@	c #52432E",
"#	c #3C3326",
"$	c #2B251C",
"%	c #1C1F0A",
"                                                ",
"                                                ",
"                                                ",
"                                                ",
"                                                ",
"                                                ",
"                                                ",
"                                                ",
"                                                ",
"                   .........                    ",
"                 ............                   ",
"                +.............                  ",
"               +++.............+                ",
"              ..+++............++@              ",
"             .................++@##             ",
"             .................++####            ",
"            .................+++###$$           ",
"           .................+@@@##$$$$          ",
"           ...............+@@@@@#$$$$$          ",
"          .............++@@@@@@#$$$$$$$         ",
"          ..............+@@@@@#$$$$$$$$         ",
"         ...............@@@#%%$%$%$%$%%         ",
"         ..............+@#$%%%%%%%%%%%%         ",
"         ............+###$%%%%%%%%%%%%%         ",
"         ........+@@#####%%%%%%%%%%%%%%         ",
"         .......+@@######%%%%%%%%%%%%%%         ",
"         .......@#######$%%%%%%%%%%%%%%         ",
"         .......########$%%%%%%%%%%%%%%         ",
"         .......@#######%%%%%%%%%%%%%%%         ",
"         ......+@######$%%%%%%%%%%%%%%%         ",
"         .....+++@####$%%%%%%%%%%%%%%%          ",
"         ...++++@@##$$%%%%%%%%%%%%%%%%          ",
"          +++++++@@#$$$%%%%%%%%%%%%%%%          ",
"           +++++@@@#$$$$%%%%%%%%%%%%%           ",
"            +++++@@@$$$$%%%%%%%%%%%%            ",
"             +++@@@@#$$$$%%%%%%%%%%             ",
"              +++@@@@$$$$%%%%%%%%%              ",
"                @@@@@$$$$%%%%%%%                ",
"                  @@@$$$$$%%%                   ",
"                                                ",
"                                                ",
"                                                ",
"                                                ",
"                                                ",
"                                                ",
"                                                ",
"                                                ",
"                                                "};
