/* XPM */
static char * wall_hor_xpm[] = {
"48 48 6 1",
" 	c #5A4429",
".	c #503D26",
"+	c #5E472A",
"@	c #624B2D",
"#	c #7D613A",
"$	c #896B42",
" ... ++ ... ++++ ... ++ ... ++++ ... ++ ... ++++",
"...++@++..++@@++...++@++..++@@++...++@++..++@@++",
".. ++@@+. ++@@@+.. ++@@+. ++@@@+.. ++@@+. ++@@@+",
"  #$$$#   #$$$#   #$$$#   #$$$#   #$$$#   #$$$# ",
" #$$$$$# #$$$$$# #$$$$$# #$$$$$# #$$$$$# #$$$$$#",
"+$$$#$$$ $$$#$$$+$$$#$$$ $$$#$$$+$$$#$$$ $$$#$$$",
"+$$###$$ $$###$$+$$###$$ $$###$$+$$###$$ $$###$$",
"+$$$#$$$ $$$#$$$+$$$#$$$ $$$#$$$+$$$#$$$ $$$#$$$",
" #$$$$$#.#$$$$$# #$$$$$#.#$$$$$# #$$$$$#.#$$$$$#",
"  #$$$# . #$$$#   #$$$# . #$$$#   #$$$# . #$$$# ",
".      +.       .      +.       .      +.       ",
" @@@.+++.   .+@@ @@@.+++.   .+@@ @@@.+++.   .+@@",
" @@@.+++.   .+++ @@@.+++.   .+++ @@@.+++.   .+++",
" @@@.++ .   .+@@ @@@.++ .   .+@@ @@@.++ .   .+@@",
" @@@.   .++ .+++ @@@.   .++ .+++ @@@.   .++ .+++",
" @@@.++ .+++.+@@ @@@.++ .+++.+@@ @@@.++ .+++.+@@",
" @@@.   .+++.+++ @@@.++ .+++.+@+ @@@.   .+++.+++",
" @@@.   .+++.+++ @@@.+++.+++.+++ @@@.   .+++.+++",
" +@@.   .+++.+++ +@@.+++.+++.... +++.   .   .+++",
" +@@.   .+++.+++.+@@.+++.+++.+++ @@@.   .   .+++",
" +++.   . ++.+++.+++.+++. ++.+@+.+++.   .....+++",
" +++.   . ++.+@@.....   . ++.+@@.   .   .   .+@@",
" @@+.++ . ++.+@@.@@+.+++. ++.+@@.+++.++ .....+@@",
" +++.+++.   .+@@ +@+.+++.   .+@@.   .+++.....+@@",
" @@+.+++. ++.+@@ @@+.+++. ++.+@@.....+++.....+@@",
" @@+.+++.   .+@@ @@+.   . @ .+@@.   .+++.   .+@@",
" @@+.+++.   .+@@ @@+.+++.   .+@@.....+++.....+@@",
" @@@.+++.   .+@@ @@@.   .....+@@.   .+++.   .+@@",
" @@@.+++.   .+++ @@@.   .   .+++.+++.+++.....+++",
" @@@.++ .   .+@@ @@@.   . @ .+@@.   .++ .   .+@@",
" @@@.   .++ .+++ @@@.   .++ .+++.@@@.   .++ .+++",
" @@@.++ .+++.+@@ @@@.   .+++.+@@.+++.++ .+++.+@@",
" @@@.   .+++.+++ @@@.   .+++.+++ @@@.   .+++.+++",
" @@@.   .+++.+++ @@@.   .+++.+++ @@@.   .+++.+++",
" +@@.   .+++.+++ +@@.....   .+++ +@@.   .+++.+++",
" +@@.   .+++.+++ +@@.   .....+++ +@@.   .+++.+++",
" +++..... ++.... +++.....   .... +++..... ++....",
".. ++@@+. ++@@@+.. ++@@+. ++@@@+.. ++@@+. ++@@@+",
"  #$$$#   #$$$#   #$$$#   #$$$#   #$$$#   #$$$# ",
" #$$$$$# #$$$$$# #$$$$$# #$$$$$# #$$$$$# #$$$$$#",
"+$$$#$$$ $$$#$$$+$$$#$$$ $$$#$$$+$$$#$$$ $$$#$$$",
"+$$###$$ $$###$$+$$###$$ $$###$$+$$###$$ $$###$$",
"+$$$#$$$ $$$#$$$+$$$#$$$ $$$#$$$+$$$#$$$ $$$#$$$",
" #$$$$$#.#$$$$$# #$$$$$#.#$$$$$# #$$$$$#.#$$$$$#",
"  #$$$# . #$$$#   #$$$# . #$$$#   #$$$# . #$$$# ",
".. ++@@+. ++@@@+.. ++@@+. ++@@@+.. ++@@+. ++@@@+",
"...++@++..++@@++...++@++..++@@++...++@++..++@@++",
" ... +++... ++++ ... +++... ++++ ... +++... ++++"};
